<svg xmlns="http://www.w3.org/2000/svg" width="20" height="20" viewBox="0 0 20 20" fill="none">
  <g clip-path="url(#clip0_85_266)">
    <path d="M18.3334 9.23336V10C18.3323 11.797 17.7504 13.5456 16.6745 14.9849C15.5985 16.4242 14.0861 17.4771 12.3628 17.9866C10.6395 18.4961 8.79774 18.4349 7.11208 17.8122C5.42642 17.1894 3.98723 16.0384 3.00915 14.5309C2.03108 13.0234 1.56651 11.2401 1.68475 9.44696C1.80299 7.65383 2.49769 5.94697 3.66525 4.58092C4.83281 3.21488 6.41068 2.26285 8.16351 1.86682C9.91635 1.47079 11.7502 1.65198 13.3917 2.38336" stroke="#0087FF" stroke-width="1.5" stroke-linecap="round" stroke-linejoin="round"/>
    <path d="M18.3333 3.33331L10 11.675L7.5 9.17498" stroke="#0087FF" stroke-width="1.5" stroke-linecap="round" stroke-linejoin="round"/>
  </g>
  <defs>
    <clipPath id="clip0_85_266">
      <rect width="20" height="20" fill="white"/>
    </clipPath>
  </defs>
</svg>