<svg xmlns="http://www.w3.org/2000/svg" width="176" height="176" viewBox="0 0 176 176" fill="none">
  <path d="M62.7232 125.342L64.5919 128.108L69.2636 144.093L80.4757 161L81.7216 166.84L45.1784 157.106C45.1784 157.106 35.5236 150.446 28.8792 140.609C22.235 130.772 21.8199 129.645 21.8199 129.645L26.0763 127.596L33.7588 123.6L37.8074 122.883L54.3142 120.833L61.0622 123.805L62.7232 125.342Z" fill="#242424"/>
  <path d="M116.407 167.355C116.407 167.355 120.627 165.811 123.509 163.855C126.391 161.9 118.774 154.592 118.774 154.592L115.686 157.577C115.686 157.577 114.863 160.047 114.966 160.562C115.069 161.076 116.407 167.355 116.407 167.355Z" fill="#242424"/>
  <path d="M82.2959 172.126C69.2124 170.358 58.1885 166.17 47.689 158.98C46.3787 158.083 45.0747 157.026 44.791 156.631C44.5076 156.236 44.163 155.933 44.0255 155.958C43.5173 156.048 38.9567 151.896 38.9567 151.344C38.9567 151.029 38.7851 150.875 38.5756 151.001C38.1057 151.284 35.1928 148.186 35.2685 147.484C35.2987 147.204 34.9909 146.975 34.5847 146.975C34.1786 146.975 33.4446 146.392 32.954 145.679C32.4633 144.967 31.1201 143.198 29.9692 141.75C28.8185 140.302 28.0649 139.056 28.2949 138.981C28.806 138.815 28.8552 137.757 28.3518 137.757C28.153 137.757 27.9246 137.95 27.8438 138.186C27.7631 138.422 27.2154 137.906 26.627 137.039C25.732 135.72 25.592 135.179 25.7705 133.729C25.9142 132.562 25.8367 131.995 25.5334 131.995C25.2789 131.995 25.1897 131.723 25.3286 131.37C25.4638 131.027 25.3904 130.529 25.1655 130.265C24.8648 129.912 24.9674 129.73 25.5526 129.581C25.9906 129.47 26.3489 129.535 26.3489 129.726C26.3489 129.918 26.615 130.074 26.9399 130.074C27.6973 130.074 27.6838 129.873 26.8646 128.94C26.3553 128.36 26.0728 128.283 25.6659 128.612C25.3193 128.893 24.9992 128.912 24.7485 128.668C24.4976 128.423 25.0845 127.967 26.4311 127.359C27.5684 126.845 28.8032 126.133 29.1751 125.774C29.5469 125.416 31.4124 124.396 33.3205 123.507C38.3831 121.149 41.784 118.86 42.7856 117.139C43.2554 116.331 45.3474 113.769 47.4343 111.445C49.5213 109.121 51.7773 106.399 52.4479 105.395C53.1185 104.392 53.8146 103.571 53.9948 103.571C54.175 103.571 54.3225 104.467 54.3225 105.563C54.3225 110.316 56.3637 115.151 61.954 123.641C63.2779 125.651 63.3366 125.849 62.6084 125.849C62.1683 125.849 61.8083 126.007 61.8083 126.199C61.8083 126.392 62.2337 126.504 62.7536 126.449C63.4968 126.369 63.8966 126.684 64.6229 127.923C65.1311 128.789 65.7667 129.844 66.0352 130.266C66.3038 130.689 66.6358 131.337 66.7729 131.707C66.9099 132.077 67.1816 132.379 67.3766 132.379C67.5714 132.379 68.0384 133.027 68.414 133.82C68.7898 134.612 69.3188 135.398 69.5897 135.567C69.8605 135.736 70.0822 136.045 70.0822 136.253C70.0822 136.462 71.146 138.752 72.446 141.344C73.7463 143.936 74.81 146.163 74.81 146.293C74.81 146.422 76.0325 149.092 77.5267 152.226C79.0209 155.359 80.5723 158.694 80.9742 159.637C81.3762 160.58 82.9017 163.851 84.3643 166.906C85.8272 169.96 87.0239 172.516 87.0239 172.585C87.0239 172.752 86.681 172.719 82.2959 172.126ZM79.144 161.188C79.144 160.976 79.0659 160.803 78.9703 160.803C78.8747 160.803 78.687 160.976 78.553 161.188C78.4191 161.399 78.4972 161.572 78.7266 161.572C78.9563 161.572 79.144 161.399 79.144 161.188ZM45.9237 155.738C45.798 155.432 45.7045 155.523 45.6856 155.97C45.6685 156.375 45.7617 156.602 45.8926 156.474C46.0236 156.347 46.0375 156.015 45.9237 155.738ZM43.9755 153.081C43.6817 152.379 43.3347 151.973 43.2043 152.179C43.0737 152.384 43.2372 153.156 43.5674 153.893C44.321 155.575 44.702 154.816 43.9756 153.081H43.9755ZM47.0336 154.658C46.8996 154.446 46.4459 154.274 46.0253 154.274C45.6047 154.274 45.2605 154.446 45.2605 154.658C45.2605 154.869 45.7143 155.042 46.2689 155.042C46.8406 155.042 47.1717 154.876 47.0336 154.658ZM63.3842 151.201C63.3842 150.989 63.1965 150.817 62.967 150.817C62.7375 150.817 62.6594 150.989 62.7933 151.201C62.9272 151.412 63.115 151.585 63.2105 151.585C63.306 151.585 63.3842 151.412 63.3842 151.201ZM34.8608 145.543C34.4602 145.152 34.1298 145.74 34.4584 146.259C34.7067 146.65 34.7995 146.651 34.9329 146.26C35.0241 145.993 34.9918 145.671 34.8608 145.543ZM37.3807 140.468C37.3807 140.318 36.7606 140.209 36.0029 140.225C34.5544 140.255 34.1385 140.672 35.3124 140.917C36.1682 141.096 37.3807 140.833 37.3807 140.468ZM65.6612 133.941C65.6793 133.321 65.436 132.605 65.1206 132.35C64.4158 131.779 64.3366 131.858 63.977 133.493C63.7355 134.591 63.789 134.762 64.3124 134.566C64.6549 134.438 65.0398 134.499 65.1679 134.701C65.5367 135.282 65.6261 135.145 65.6612 133.941V133.941ZM28.3189 133.531C28.3189 133.32 28.0529 133.147 27.7278 133.147C27.4028 133.147 27.1369 133.32 27.1369 133.531C27.1369 133.743 27.4028 133.916 27.7279 133.916C28.0529 133.916 28.319 133.743 28.319 133.531H28.3189ZM27.5309 131.227C27.5309 131.015 27.2649 130.843 26.9398 130.843C26.6148 130.843 26.3489 131.015 26.3489 131.227C26.3489 131.438 26.615 131.611 26.9399 131.611C27.2649 131.611 27.5309 131.438 27.5309 131.227ZM64.5662 131.012C64.5662 130.683 64.3861 130.522 64.1658 130.655C63.9456 130.787 63.8674 131.057 63.9921 131.253C64.3298 131.786 64.5663 131.687 64.5663 131.012H64.5662ZM30.3873 129.026C31.3285 128.762 31.2598 128.154 30.2889 128.154C29.8555 128.154 29.5009 128.327 29.5009 128.538C29.5009 128.749 29.2349 128.922 28.9098 128.922C28.5848 128.922 28.3189 129.113 28.3189 129.347C28.3189 129.602 28.596 129.661 29.0084 129.496C29.3875 129.344 30.0082 129.132 30.3873 129.026ZM28.5159 128.154C28.6498 127.943 28.4935 127.77 28.1684 127.77C27.8433 127.77 27.4678 127.943 27.3339 128.154C27.2 128.365 27.3563 128.538 27.6813 128.538C28.0064 128.538 28.3819 128.365 28.5159 128.154ZM35.1883 125.504C34.9409 125.263 34.2377 126.239 34.2473 126.81C34.2508 127.021 34.5123 126.86 34.8282 126.453C35.1442 126.046 35.3062 125.619 35.1881 125.504H35.1883ZM33.5626 125.437C33.6802 124.998 34.1441 124.546 34.5934 124.431C35.7047 124.148 35.6383 123.564 34.5242 123.822C33.5423 124.049 32.6528 124.956 32.6528 125.73C32.6528 126.531 33.3275 126.313 33.5626 125.437ZM87.4001 170.052C86.9444 168.59 86.629 166.904 86.6992 166.307C86.8122 165.345 87.0642 165.628 88.8954 168.771C90.033 170.723 90.9639 172.409 90.9639 172.516C90.9639 172.623 90.3484 172.711 89.5961 172.711C88.2468 172.711 88.2175 172.676 87.4001 170.052ZM92.1457 172.329C92.1457 172.117 92.323 171.943 92.5397 171.943C92.6441 171.943 92.7442 171.902 92.818 171.83C92.8919 171.758 92.9334 171.661 92.9337 171.559C92.9337 171.347 92.6456 171.175 92.2936 171.175C91.7922 171.175 91.7047 170.924 91.8897 170.022C92.0365 169.307 91.9636 168.87 91.6972 168.87C91.4419 168.87 91.3408 168.389 91.4472 167.682C91.566 166.893 91.4417 166.425 91.0774 166.289C90.7033 166.149 90.6054 165.745 90.7696 165.017C90.9018 164.43 90.8662 163.863 90.6904 163.757C90.5147 163.651 90.3189 161.61 90.2553 159.222C90.1918 156.833 90.0474 154.789 89.9345 154.679C89.8218 154.569 88.9877 154.212 88.0812 153.886C86.2803 153.238 85.3306 151.831 84.8851 149.153C84.677 147.902 84.8827 147.253 86.2577 144.824C87.1474 143.253 88.2928 141.484 88.8029 140.893C89.8866 139.637 90.3904 138.012 89.9174 137.298C89.7345 137.022 89.5848 136.364 89.5848 135.836C89.5848 135.014 89.4027 134.874 88.3217 134.863C87.627 134.855 86.6518 134.501 86.1548 134.074C85.6575 133.647 84.0985 132.627 82.6899 131.807C81.2814 130.987 78.9765 129.328 77.568 128.122C76.1595 126.915 74.3205 125.65 73.4814 125.312C72.1827 124.788 72.0299 124.61 72.454 124.111C73.0571 123.403 72.6683 122.887 71.962 123.458C71.6024 123.749 71.2533 123.719 70.738 123.351C70.0462 122.858 70.0503 122.82 70.8375 122.409C71.2888 122.174 71.6582 121.804 71.6582 121.588C71.6582 121.372 71.5045 121.287 71.3168 121.4C70.9072 121.647 69.6067 120.331 69.7703 119.835C69.8334 119.643 68.8213 118.315 67.5213 116.883C64.6592 113.732 62.3228 110.358 61.9949 108.902C61.8619 108.311 61.322 106.957 60.7955 105.893C60.2691 104.829 59.8384 103.778 59.8384 103.557C59.8384 103.024 58.2016 100.882 57.7943 100.882C57.6183 100.882 57.4539 101.357 57.4287 101.938C57.394 102.74 57.3368 102.81 57.191 102.226C57.0854 101.804 56.7789 101.199 56.5099 100.882C55.3656 99.5342 54.6755 96.7898 54.4692 92.7675C54.2829 89.1314 54.3355 88.5901 54.8763 88.5901C55.2181 88.5901 55.7192 88.9359 55.9898 89.3584C56.2604 89.7809 56.7245 90.1266 57.0208 90.1266C57.667 90.1266 57.2912 92.0621 56.5567 92.5176C56.2534 92.7057 56.3316 92.8058 56.785 92.8096C57.2699 92.8137 57.478 93.1287 57.4867 93.8717C57.4935 94.4527 58.0254 95.9608 58.6688 97.2229C59.312 98.4852 59.841 99.7815 59.8442 100.104C59.8528 100.953 60.7684 103.388 61.3247 104.041C61.5869 104.35 61.7069 104.694 61.5914 104.806C61.2379 105.151 62.6193 108.106 63.2427 108.34C63.5649 108.46 63.7414 108.696 63.6352 108.863C63.529 109.031 63.7394 109.188 64.1027 109.212C66.0862 109.345 69.1987 109.817 69.8851 110.09C70.3186 110.262 71.5379 110.704 72.5951 111.071C73.6521 111.438 74.5935 112.023 74.6871 112.372C75.0951 113.893 82.2959 115.34 82.2959 113.901C82.2959 113.375 83.7789 113.493 84.0108 114.038C84.1552 114.377 84.425 114.287 84.93 113.731C85.3232 113.298 85.9765 112.82 86.3818 112.669C86.9817 112.445 87.0802 112.538 86.9112 113.168C86.6815 114.024 87.3744 114.215 88.1103 113.497C88.4557 113.16 88.7028 113.163 89.1286 113.507C89.8305 114.075 93.879 113.71 95.2931 112.952C97.023 112.024 97.9089 111.183 97.3662 110.985C96.4433 110.647 96.8702 110.233 97.9773 110.392C98.8667 110.519 99.1726 110.353 99.5533 109.539C100.128 108.309 100.167 106.774 99.6317 106.451C99.4149 106.321 99.2377 105.879 99.2377 105.468C99.2377 104.54 98.2362 104.493 97.6816 105.395C97.293 106.027 97.2324 106.022 96.6695 105.312C96.1 104.593 96.0085 104.587 94.7977 105.187C94.0976 105.534 92.6383 105.922 91.5548 106.049L89.5848 106.28L90.5148 105.502C91.3454 104.806 91.3658 104.723 90.7061 104.723C90.2997 104.723 89.289 104.369 88.4601 103.935C87.631 103.502 87.068 103.33 87.2086 103.551C87.3687 103.804 86.9484 103.955 86.0853 103.955C84.6295 103.955 83.8257 103.305 84.6599 102.802C84.9322 102.638 85.0378 102.32 84.8948 102.094C84.3961 101.307 86.5175 100.463 89.446 100.282C92.8292 100.073 96.157 99.0535 95.1854 98.5234C94.8482 98.3395 92.5886 98.1116 90.1641 98.0168C85.9679 97.8531 82.771 97.5004 77.2698 96.5941C75.9139 96.3707 74.1852 96.3012 73.4283 96.4398C72.6028 96.5907 72.0522 96.538 72.0522 96.3079C72.0522 96.0755 71.3042 96.0109 70.1525 96.1439C68.2672 96.3615 68.25 96.3535 67.8723 95.0695C67.663 94.3579 67.2916 93.7757 67.0467 93.7757C66.2604 93.7757 65.9499 93.169 66.5477 92.8004C66.8808 92.5951 66.9326 92.4406 66.6695 92.4372C66.4178 92.4341 66.2545 92.1289 66.3068 91.7591C66.4085 91.0363 69.8318 88.998 70.9687 88.9833C71.8167 88.9723 71.8219 88.8828 70.8702 90.7029C70.4367 91.5316 70.0822 92.5187 70.0822 92.8967C70.0822 93.7131 70.9811 93.8027 71.6219 93.05C72.2172 92.3509 74.022 92.0123 74.022 92.5998C74.022 92.8452 73.8122 93.2504 73.5559 93.5004C72.4166 94.6111 73.6153 94.6956 82.4046 94.125C85.3897 93.9311 88.1203 93.8711 88.4724 93.9916C89.2646 94.2625 93.5231 93.6969 95.0389 93.1194C96.0255 92.7435 96.13 92.5511 95.9164 91.5056C95.783 90.8529 95.517 90.2664 95.3253 90.2025C95.1334 90.1386 94.5785 89.7496 94.0919 89.3382C93.6053 88.9267 93.0004 88.5901 92.7476 88.5901C92.4947 88.5901 91.9271 88.1857 91.4862 87.6912C91.0451 87.1968 89.9051 86.4027 88.9525 85.9267C88.0001 85.4507 86.7776 84.8206 86.2359 84.5266C85.6941 84.2326 84.5416 83.9886 83.6749 83.9845C81.774 83.9754 79.6551 82.5496 80.0502 81.5454C80.4046 80.6452 81.7538 80.7586 84.2659 81.9001C86.4876 82.9096 86.6144 82.9149 91.4649 82.2069C92.5823 82.0437 93.0952 81.7176 93.5333 80.8919C94.2209 79.5955 94.296 78.219 93.679 78.219C93.4101 78.219 93.3372 77.8505 93.4895 77.2588C93.633 76.7011 93.5669 76.2986 93.3319 76.2986C93.0732 76.2986 93.0917 76.0416 93.383 75.5866C93.7214 75.0584 93.7266 74.5602 93.4031 73.6552C93.1633 72.9845 93.0672 72.1813 93.1896 71.8705C93.3119 71.5594 93.2239 71.3052 92.9939 71.3052C92.5173 71.3052 92.7019 69.261 93.322 67.6707C93.5449 67.099 93.6223 66.4652 93.4937 66.2625C93.3651 66.0597 93.4281 65.6853 93.6337 65.4305C93.8392 65.1756 94.113 64.0516 94.2422 62.9324C94.4248 61.3503 94.3492 60.8498 93.9024 60.6827C93.0264 60.355 93.2098 59.6515 94.48 58.4651C95.1138 57.873 95.5413 57.1578 95.4302 56.8754C95.2752 56.4815 95.5612 56.4146 96.6574 56.5881C97.8005 56.7689 98.2771 56.6398 99.0373 55.9435C99.6596 55.3737 100.276 55.1465 100.822 55.2856C101.28 55.4025 102.202 55.3123 102.871 55.0852C103.903 54.7344 104.167 54.7798 104.622 55.3863C105.132 56.0663 105.212 56.069 106.297 55.4443C107.573 54.7093 108.694 54.5865 108.694 55.1817C108.694 55.3983 109.137 55.7397 109.678 55.9405C110.22 56.1413 110.664 56.4826 110.664 56.6992C110.664 56.9156 111.151 57.0902 111.747 57.087C112.517 57.0828 112.674 56.9842 112.288 56.7458C111.597 56.3195 112.06 55.5564 113.008 55.5564C113.658 55.5564 114.209 54.8575 114.209 54.0352C114.209 53.8667 113.673 53.5124 113.017 53.2476C112.362 52.9827 111.451 52.2545 110.994 51.6291C110.417 50.8388 110.073 50.635 109.867 50.9608C109.703 51.2186 109.328 51.3082 109.033 51.1599C108.738 51.0114 108.85 51.169 109.282 51.5098C109.957 52.0419 109.985 52.1806 109.48 52.4886C109.053 52.7485 108.703 52.612 108.21 51.9932C107.363 50.9306 107.339 50.5629 108.118 50.5629C108.582 50.5629 108.707 50.1781 108.646 48.9304C108.602 48.0326 108.417 47.006 108.235 46.649C108.039 46.2663 108.065 45.9025 108.298 45.7621C108.958 45.3648 108.741 44.8012 107.929 44.8012C106.829 44.8012 106.49 44.0207 107.48 43.7682C108.038 43.6258 108.197 43.4111 107.957 43.1218C107.501 42.5715 107.499 40.6286 107.955 40.3543C108.144 40.24 108.3 39.3932 108.3 38.4726C108.3 37.4758 108.499 36.7336 108.792 36.6376C109.181 36.5103 109.184 36.2812 108.808 35.5493C108.546 35.0394 108.281 34.1901 108.217 33.6619C108.151 33.1048 107.73 32.5424 107.216 32.3224C106.729 32.1139 106.33 31.7189 106.33 31.4447C106.33 31.0708 106.52 31.0456 107.092 31.3436C108.442 32.0485 109.179 31.8515 108.837 30.8771C108.67 30.4019 108.563 29.5211 108.6 28.9203C108.652 28.0786 108.528 27.88 108.059 28.0555C107.577 28.2356 107.469 28.0222 107.538 27.0354C107.683 24.9802 107.535 23.9996 107.118 24.2512C106.9 24.3824 106.716 24.0922 106.708 23.6016C106.699 23.1138 106.167 22.1162 105.525 21.3848C104.417 20.1199 103.919 18.7548 104.749 19.2549C104.977 19.3925 105.035 19.2272 104.889 18.8548C104.564 18.0289 105.493 17.477 106.407 17.9535C106.885 18.2032 107.118 18.1905 107.118 17.9148C107.118 17.6895 106.853 17.406 106.529 17.2847C106.205 17.1636 106.05 16.8913 106.184 16.6795C106.339 16.4348 105.991 16.3883 105.227 16.5517C104.17 16.7781 104.051 16.7188 104.228 16.0559C104.34 15.6417 104.134 14.8622 103.772 14.3236C103.41 13.785 103.173 13.213 103.244 13.0526C103.316 12.8921 101.742 12.2177 99.746 11.5539C92.2536 9.06213 91.4951 8.64933 93.5057 8.15734C94.0577 8.02215 95.1128 8.19175 95.968 8.55307C98.5512 9.64411 98.9772 9.77151 101.588 10.2346C103.188 10.5182 104.555 11.0305 105.263 11.611C105.883 12.1195 106.758 12.5356 107.208 12.5356C108.655 12.5356 112.795 15.1045 115.056 17.406C116.264 18.6356 118.168 20.3894 119.286 21.303C121.763 23.3274 123.355 25.9249 124.677 30.1001C126.101 34.5975 127.6 44.2448 127.589 48.8344C127.579 52.6491 127.131 57.0985 126.636 58.2917C126.166 59.4251 127.44 60.1732 129.394 59.912C131.109 59.6829 131.159 59.7069 131.729 61.0372C132.247 62.2446 132.241 62.8192 131.68 66.1786C131.11 69.5859 130.75 70.5126 128.046 75.5303C126.395 78.5936 124.643 82.0414 124.153 83.1922C123.64 84.3973 122.689 85.7451 121.91 86.3709C120.838 87.2327 120.505 87.8327 120.301 89.2721C119.409 95.5573 114.343 106.99 110.679 110.982C109.761 111.982 109.508 112.768 108.307 118.334C108.082 119.376 107.53 120.563 107.08 120.972C106.575 121.431 106.34 122.005 106.465 122.472C106.69 123.31 104.29 127.288 103.348 127.641C103.038 127.757 102.784 128.041 102.784 128.271C102.784 128.708 101.41 130.219 98.5482 132.935C97.6272 133.808 96.8737 134.712 96.8737 134.943C96.8737 135.175 96.4304 135.647 95.8886 135.993C94.8589 136.651 94.548 137.479 95.3962 137.305C95.97 137.187 97.7978 138.293 99.3112 139.672C100.607 140.854 102.421 144.171 104.145 148.512C104.859 150.308 105.737 152.435 106.097 153.238C106.721 154.631 106.719 154.682 106.048 154.324C105.661 154.117 104.121 152.723 102.625 151.225C101.129 149.727 99.8138 148.59 99.7016 148.7C99.5894 148.809 99.471 149.546 99.4384 150.338C99.3946 151.404 99.6227 152.002 100.318 152.645C100.934 153.215 101.226 153.875 101.167 154.566C101.002 156.497 101.663 158.185 102.841 158.838C103.457 159.18 103.962 159.675 103.963 159.939C103.964 160.203 104.185 160.419 104.453 160.419C105.139 160.419 110.269 165.754 110.269 166.468C110.269 166.792 110.564 167.267 110.924 167.524C111.301 167.792 111.477 168.251 111.339 168.602C111.018 169.418 108.94 170.434 107.386 170.535C106.697 170.58 105.955 170.718 105.738 170.843C104.706 171.435 103.04 171.579 102.738 171.103C102.491 170.714 102.301 170.762 101.881 171.322C101.474 171.864 100.985 172.002 99.9015 171.878C99.1098 171.788 98.4144 171.854 98.3561 172.024C98.1955 172.494 92.1457 172.792 92.1457 172.329ZM100.42 170.406C100.42 170.195 100.232 170.022 100.002 170.022C99.7729 170.022 99.6947 170.195 99.8286 170.406C99.9625 170.618 100.15 170.79 100.246 170.79C100.341 170.79 100.42 170.618 100.42 170.406ZM94.5097 170.022C94.5094 169.92 94.4678 169.823 94.394 169.751C94.3202 169.679 94.2201 169.638 94.1157 169.638C94.0113 169.638 93.9113 169.679 93.8374 169.751C93.7636 169.823 93.722 169.92 93.7217 170.022C93.722 170.124 93.7636 170.222 93.8374 170.294C93.9113 170.365 94.0113 170.406 94.1157 170.406C94.2201 170.406 94.3202 170.365 94.394 170.294C94.4678 170.222 94.5094 170.124 94.5097 170.022ZM108.102 169.638C108.236 169.427 108.158 169.254 107.929 169.254C107.699 169.254 107.511 169.427 107.511 169.638C107.511 169.849 107.59 170.022 107.685 170.022C107.781 170.022 107.969 169.849 108.103 169.638H108.102ZM96.0857 168.486C96.0854 168.384 96.0438 168.287 95.97 168.215C95.8961 168.143 95.7961 168.102 95.6917 168.102C95.5873 168.102 95.4873 168.143 95.4134 168.215C95.3396 168.287 95.298 168.384 95.2977 168.486C95.298 168.588 95.3396 168.685 95.4134 168.757C95.4873 168.829 95.5873 168.87 95.6917 168.87C95.7961 168.87 95.8961 168.829 95.97 168.757C96.0438 168.685 96.0854 168.588 96.0857 168.486ZM105.936 168.486C105.936 168.274 105.748 168.102 105.518 168.102C105.289 168.102 105.211 168.274 105.345 168.486C105.479 168.697 105.666 168.87 105.762 168.87C105.857 168.87 105.936 168.697 105.936 168.486ZM94.1157 167.484C94.1157 167.079 93.9014 166.947 93.4924 167.1C93.1497 167.229 92.7847 167.334 92.6813 167.334C92.5778 167.334 92.6029 167.506 92.7368 167.718C93.1248 168.33 94.1157 168.162 94.1157 167.484ZM103.966 167.334C103.965 167.232 103.924 167.134 103.85 167.062C103.776 166.99 103.676 166.95 103.572 166.949C103.467 166.95 103.367 166.99 103.293 167.062C103.219 167.134 103.178 167.232 103.178 167.334C103.178 167.435 103.219 167.533 103.293 167.605C103.367 167.677 103.467 167.717 103.572 167.718C103.676 167.717 103.776 167.677 103.85 167.605C103.924 167.533 103.965 167.435 103.966 167.334ZM97.4646 166.949C97.5987 166.738 97.5204 166.565 97.2909 166.565C97.0614 166.565 96.8736 166.738 96.8736 166.949C96.8736 167.161 96.952 167.334 97.0474 167.334C97.143 167.334 97.3307 167.161 97.4648 166.949H97.4646ZM95.2978 166.245C95.2978 165.745 94.8293 165.412 94.4484 165.642C94.0408 165.887 94.3923 166.565 94.927 166.565C95.1309 166.565 95.2978 166.421 95.2978 166.245ZM93.3277 165.224C93.3277 164.909 93.6823 164.435 94.1157 164.171C95.1834 163.521 95.1069 163.108 93.9188 163.108C92.7281 163.108 92.5827 162.116 93.7217 161.764C94.1551 161.63 94.5097 161.359 94.5097 161.162C94.5097 160.965 94.1551 160.803 93.7217 160.803C93.2883 160.803 92.9337 161.021 92.9337 161.287C92.9337 161.553 92.5723 161.991 92.1304 162.26C91.1434 162.861 91.4658 163.492 92.76 163.492C93.9165 163.492 94.043 164.251 92.9337 164.533C92.0205 164.766 91.8597 165.797 92.7368 165.797C93.0617 165.797 93.3277 165.539 93.3277 165.224ZM99.4346 165.413C99.5685 165.202 99.4904 165.029 99.2609 165.029C99.0314 165.029 98.8436 165.202 98.8436 165.413C98.8436 165.624 98.9218 165.797 99.0174 165.797C99.1129 165.797 99.3007 165.624 99.4348 165.413H99.4346ZM97.0706 164.261C96.9367 164.049 96.6602 163.876 96.4564 163.876C96.2525 163.876 96.0857 164.049 96.0857 164.261C96.0857 164.472 96.3621 164.645 96.6999 164.645C97.0377 164.645 97.2047 164.472 97.0706 164.261ZM101.208 163.876C101.208 163.665 101.02 163.492 100.79 163.492C100.561 163.492 100.483 163.665 100.617 163.876C100.751 164.088 100.938 164.261 101.034 164.261C101.129 164.261 101.208 164.088 101.208 163.876ZM96.6766 161.956C96.5427 161.745 96.1672 161.572 95.8423 161.572C95.5172 161.572 95.3607 161.745 95.4948 161.956C95.6287 162.167 96.0042 162.34 96.3291 162.34C96.6542 162.34 96.8107 162.167 96.6766 161.956ZM92.3428 160.419C92.2089 160.208 91.8437 160.035 91.5315 160.035C91.2192 160.035 90.9639 160.208 90.9639 160.419C90.9639 160.631 91.3289 160.803 91.775 160.803C92.2212 160.803 92.4767 160.631 92.3428 160.419ZM98.4496 160.419C98.4496 160.208 98.2829 160.035 98.0789 160.035C97.875 160.035 97.5985 160.208 97.4646 160.419C97.3307 160.631 97.4975 160.803 97.8354 160.803C98.1732 160.803 98.4496 160.631 98.4496 160.419ZM96.0857 159.651C96.0854 159.549 96.0438 159.452 95.97 159.38C95.8961 159.308 95.7961 159.267 95.6917 159.267C95.5873 159.267 95.4873 159.308 95.4134 159.38C95.3396 159.452 95.298 159.549 95.2977 159.651C95.298 159.753 95.3396 159.851 95.4134 159.923C95.4873 159.995 95.5873 160.035 95.6917 160.035C95.7961 160.035 95.8961 159.995 95.97 159.923C96.0438 159.851 96.0854 159.753 96.0857 159.651ZM93.7217 158.883C93.7217 158.672 93.4557 158.499 93.1306 158.499C92.8057 158.499 92.5397 158.672 92.5397 158.883C92.5397 159.094 92.8058 159.267 93.1308 159.267C93.4557 159.267 93.7217 159.094 93.7217 158.883ZM91.7517 158.115C91.7517 157.904 91.564 157.731 91.3345 157.731C91.105 157.731 91.0269 157.904 91.1608 158.115C91.2947 158.326 91.4825 158.499 91.578 158.499C91.6736 158.499 91.7517 158.326 91.7517 158.115ZM97.8586 158.115C97.9925 157.904 97.8152 157.731 97.4646 157.731C97.114 157.731 96.9367 157.904 97.0706 158.115C97.2047 158.326 97.3818 158.499 97.4646 158.499C97.5474 158.499 97.7247 158.326 97.8586 158.115ZM93.2375 156.266C93.3232 156.015 93.1127 155.81 92.7697 155.81C92.6044 155.811 92.4459 155.875 92.329 155.989C92.2121 156.103 92.1462 156.257 92.1457 156.418C92.1457 157.097 92.9939 156.978 93.2375 156.266ZM95.2978 154.658C95.2978 154.446 95.0317 154.274 94.7068 154.274C94.3817 154.274 94.1157 154.446 94.1157 154.658C94.1157 154.869 94.3817 155.042 94.7068 155.042C95.0317 155.042 95.2978 154.869 95.2978 154.658ZM97.0706 153.505C97.2047 153.294 97.0272 153.121 96.6766 153.121C96.326 153.121 96.1487 153.294 96.2826 153.505C96.4167 153.717 96.5938 153.889 96.6766 153.889C96.7594 153.889 96.9367 153.717 97.0706 153.505ZM94.5097 150.422C94.5097 150.23 94.2618 150.165 93.9585 150.279C93.6554 150.392 93.2905 150.3 93.1473 150.074C92.7823 149.499 91.6488 149.56 91.8583 150.144C91.953 150.409 92.309 150.577 92.6494 150.518C92.9897 150.46 93.3826 150.592 93.5223 150.813C93.8024 151.254 94.5097 150.975 94.5097 150.422ZM95.2977 148.896C95.2977 148.685 95.0317 148.512 94.7066 148.512C94.3817 148.512 94.1157 148.685 94.1157 148.896C94.1157 149.107 94.3817 149.28 94.7068 149.28C95.0317 149.28 95.2977 149.107 95.2977 148.896ZM93.5514 147.16C93.9405 146.057 93.9277 145.823 93.4783 145.823C93.1788 145.823 92.9337 146.174 92.9337 146.603C92.9337 147.033 92.6634 147.485 92.3328 147.609C91.864 147.784 91.8329 147.952 92.1918 148.374C92.7568 149.038 92.9502 148.865 93.5514 147.16ZM92.1457 145.416C92.1457 145.217 91.9685 145.055 91.7517 145.055C91.535 145.055 91.3577 145.324 91.3577 145.654C91.3577 145.983 91.535 146.146 91.7517 146.015C91.9685 145.885 92.1457 145.615 92.1457 145.416ZM92.5397 143.902C92.5397 143.691 92.2739 143.518 91.9486 143.518C91.6237 143.518 91.3577 143.691 91.3577 143.902C91.3577 144.114 91.6238 144.287 91.9488 144.287C92.2737 144.287 92.5398 144.114 92.5398 143.902H92.5397ZM90.5699 143.326C90.5699 143.009 90.5001 142.75 90.4149 142.75C90.3298 142.75 90.1581 143.01 90.0333 143.326C89.9086 143.643 89.9782 143.903 90.1882 143.903C90.398 143.903 90.5699 143.643 90.5699 143.326ZM90.9933 141.876C90.9447 141.417 90.4042 141.506 90.235 142.001C90.1481 142.255 90.29 142.393 90.5501 142.308C90.8101 142.224 91.0095 142.029 90.9933 141.876ZM110.99 83.2125C111.244 83.2125 111.451 82.9678 111.451 82.6684C111.451 82.3691 111.648 82.0604 111.888 81.9823C112.129 81.9042 112.35 80.9397 112.381 79.8391C112.417 78.5218 112.605 77.8375 112.93 77.8364C113.394 77.8351 116.223 75.0642 116.508 74.3314C116.58 74.1457 116.036 73.9939 115.299 73.9939C113.808 73.9939 109.886 72.9658 109.304 72.4226C109.075 72.209 109.333 72.0733 109.968 72.0733C110.539 72.0733 111.48 71.8975 112.06 71.6827C112.899 71.3718 113.021 71.1839 112.66 70.7599C112.314 70.3541 112.328 70.1837 112.715 70.0438C113.017 69.9349 112.783 69.6889 112.141 69.4397C110.893 68.9557 110.763 68.4379 111.747 67.8788C112.363 67.5292 112.342 67.486 111.55 67.4756C111.062 67.4692 110.663 67.2911 110.663 67.0799C110.663 66.8685 110.93 66.6957 111.254 66.6957C111.579 66.6957 111.846 66.4363 111.846 66.1195C111.846 65.6676 111.304 65.5432 109.338 65.5432C106.722 65.5432 104.754 64.6243 104.754 63.4028C104.754 62.6896 104.191 62.7028 103.572 63.4307C103.302 63.7476 102.864 64.0069 102.599 64.0069C102.334 64.0069 101.788 64.3622 101.385 64.7966C100.779 65.4493 100.735 65.7158 101.13 66.3331C101.511 66.928 101.505 67.0799 101.099 67.0799C100.819 67.0799 100.29 67.5744 99.9234 68.1791C99.3142 69.1848 99.3067 69.5097 99.8376 71.9912C100.157 73.4833 100.318 74.9567 100.197 75.2654C99.9666 75.8502 105.083 81.292 105.863 81.292C106.09 81.292 106.389 81.6377 106.526 82.0602C106.664 82.4827 106.942 82.8285 107.144 82.8285C107.346 82.8285 107.88 83.1882 108.332 83.628C109.083 84.3609 109.209 84.3768 109.84 83.82C110.219 83.486 110.736 83.2126 110.99 83.2126V83.2125ZM106.133 69.5628L104.95 69.035L106.79 69.0177C108.797 68.9988 109.875 69.2755 109.875 69.8097C109.875 70.3228 107.481 70.1647 106.132 69.5626L106.133 69.5628ZM97.6616 77.995C97.6616 76.7917 96.7364 76.9234 96.5508 78.1531C96.4672 78.7071 96.6326 78.9874 97.0433 78.9874C97.4456 78.9874 97.6617 78.6406 97.6617 77.995H97.6616ZM98.4497 73.2256C98.4494 73.1238 98.4078 73.0263 98.334 72.9543C98.2601 72.8824 98.1601 72.8418 98.0557 72.8415C97.9513 72.8418 97.8512 72.8824 97.7774 72.9543C97.7036 73.0263 97.662 73.1238 97.6617 73.2256C97.662 73.3274 97.7036 73.4249 97.7774 73.4969C97.8512 73.5689 97.9513 73.6095 98.0557 73.6097C98.1601 73.6095 98.2601 73.5689 98.334 73.4969C98.4078 73.4249 98.4494 73.3274 98.4497 73.2256ZM127.704 68.4611C127.57 68.25 127.499 67.4348 127.547 66.6494C127.664 64.7201 127.009 64.4574 126.204 66.1106C125.842 66.8548 125.388 67.4638 125.196 67.4638C125.004 67.4638 124.847 67.6485 124.847 67.8739C124.847 68.109 125.183 68.1799 125.635 68.0401C126.161 67.8775 126.423 67.971 126.423 68.3214C126.423 69.1616 127.302 69.8626 127.656 69.3046C127.816 69.0519 127.838 68.6723 127.704 68.4611ZM98.2495 64.7656C98.0581 64.1776 97.8537 64.0503 97.5604 64.3361C97.2671 64.6221 97.2954 64.9211 97.6557 65.3444C98.3124 66.1159 98.5983 65.8371 98.2495 64.7654V64.7656ZM112.404 60.701C113.077 60.4491 113.262 58.8162 112.658 58.4524C111.946 58.0234 106.113 58.1258 105.237 58.5825C103.612 59.4308 104.155 60.1638 106.428 60.188C108.058 60.2054 111.342 60.6413 111.715 60.8898C111.751 60.9143 112.061 60.8292 112.404 60.701ZM116.736 55.7084C117.611 55.3808 117.132 54.8182 116.183 55.06C115.753 55.1698 115.497 55.4129 115.616 55.6002C115.872 56.004 115.93 56.0096 116.736 55.7084ZM105.542 14.0721C105.542 13.8608 105.354 13.6879 105.124 13.6879C104.895 13.6879 104.817 13.8608 104.951 14.0721C105.085 14.2833 105.272 14.4562 105.368 14.4562C105.463 14.4562 105.542 14.2833 105.542 14.0721ZM113.395 167.622C113.174 167.146 112.732 166.325 112.412 165.797C111.953 165.039 111.884 164.047 112.085 161.094C112.27 158.385 112.169 156.473 111.721 154.179C110.378 147.315 110.178 141.417 110.911 130.281C111.287 124.569 111.626 119.848 111.664 119.79C111.703 119.731 112.867 120.311 114.252 121.077C115.637 121.843 117.568 122.782 118.543 123.163C119.518 123.545 120.848 124.132 121.498 124.467C122.148 124.802 122.829 125.077 123.01 125.079C123.192 125.08 124.788 125.707 126.556 126.471C130.567 128.206 138.822 130.853 143.759 131.989C145.818 132.463 148.904 133.263 150.619 133.767C152.333 134.271 153.973 134.684 154.263 134.684C155.033 134.684 154.96 134.872 153.084 137.689C149.553 142.994 138.991 153.985 134.697 156.821C133.939 157.322 131.634 158.87 129.575 160.26C127.517 161.651 124.984 163.212 123.946 163.73C122.247 164.578 122.001 164.613 121.453 164.079C121.033 163.67 120.926 163.133 121.105 162.338C121.309 161.432 121.229 161.188 120.729 161.188C119.833 161.188 119.634 161.962 120.058 163.801C120.437 165.446 120.264 165.807 118.864 166.292C118.29 166.491 118.163 166.107 117.927 163.471C117.776 161.793 117.476 160.419 117.259 160.419C116.882 160.419 116.946 161.383 117.579 165.222C117.831 166.747 117.818 166.767 116.011 167.623C113.784 168.677 113.885 168.677 113.395 167.621V167.622ZM84.0399 153.217C83.1222 152.251 82.7075 151.471 82.7795 150.846C82.9732 149.168 83.6574 149.635 84.7152 152.167C85.2873 153.537 85.6772 154.658 85.5816 154.658C85.486 154.658 84.7922 154.009 84.0399 153.217ZM22.6335 130.118C22.3947 129.741 23.4931 128.699 23.8067 129.004C24.085 129.276 23.5736 130.459 23.1781 130.459C22.9974 130.459 22.7523 130.305 22.6335 130.118ZM87.4179 105.875C87.4179 105.664 87.6055 105.491 87.8351 105.491C88.0645 105.491 88.1428 105.664 88.0088 105.875C87.8749 106.086 87.6872 106.259 87.5915 106.259C87.496 106.259 87.4179 106.086 87.4179 105.875ZM94.5097 105.853C94.5097 105.629 94.687 105.553 94.9037 105.683C95.1204 105.814 95.2977 105.997 95.2977 106.09C95.2977 106.183 95.1204 106.259 94.9037 106.259C94.687 106.259 94.5097 106.076 94.5097 105.853ZM95.6917 105.875C95.692 105.773 95.7336 105.676 95.8074 105.604C95.8813 105.532 95.9813 105.491 96.0857 105.491C96.1901 105.491 96.2901 105.532 96.364 105.604C96.4378 105.676 96.4794 105.773 96.4797 105.875C96.4794 105.977 96.4378 106.075 96.364 106.147C96.2901 106.218 96.1901 106.259 96.0857 106.259C95.9813 106.259 95.8813 106.218 95.8074 106.147C95.7336 106.075 95.692 105.977 95.6917 105.875ZM53.1404 85.5173C53.1404 85.3059 53.3084 85.1332 53.5139 85.1332C53.7379 85.1332 53.7165 84.6551 53.4607 83.9396C53.1358 83.0311 53.1512 82.6751 53.525 82.4501C53.8369 82.2621 54.0161 81.228 54.0161 79.6142C54.0161 78.2173 54.1708 77.1675 54.36 77.2815C54.8253 77.5618 54.6955 84.8172 54.2144 85.4213C53.7555 85.9973 53.1405 86.0522 53.1405 85.5173H53.1404ZM72.1134 84.4099C71.4278 83.9863 72.3159 82.2028 73.9096 80.803C78.0706 77.1479 79.932 75.875 79.932 76.6845C79.932 78.0981 77.4582 81.1668 74.0603 83.9684C73.0003 84.8423 72.8634 84.8733 72.1134 84.4099ZM56.3908 77.7807C56.1201 77.5147 55.8984 76.986 55.8984 76.6058C55.8984 76.2255 55.7093 75.9145 55.4779 75.9145C55.2307 75.9145 55.165 75.5837 55.3185 75.1121C55.5013 74.5509 55.3475 74.1512 54.807 73.7821C54.011 73.2385 53.7995 72.3076 53.1897 66.6643C53.0166 65.0626 52.7552 63.5632 52.6087 63.3322C52.3281 62.8896 53.0794 60.9339 53.53 60.9339C53.9334 60.9339 54.7293 64.6798 54.4671 65.3457C54.3399 65.6689 54.5601 66.4073 54.9564 66.9867C55.3528 67.5661 55.6306 68.2561 55.5736 68.5202C55.5166 68.7843 55.6654 69.0003 55.9044 69.0003C56.1433 69.0003 56.2237 69.1819 56.0831 69.4038C55.9425 69.6257 56.1225 70.4135 56.4833 71.1544C57.0002 72.2168 57.0388 72.6196 56.6654 73.0584C56.296 73.4922 56.298 73.9855 56.6739 75.2948C57.261 77.339 57.1283 78.5046 56.391 77.7807H56.3908ZM49.5525 74.5546C48.0257 73.7702 47.2553 72.3563 47.1767 70.1945C47.093 67.887 47.5675 67.2279 49.7178 66.6632C51.1142 66.2967 51.3928 66.3313 51.8389 66.926C52.5196 67.8335 52.4866 68.605 51.691 70.3938C51.3271 71.2119 50.9282 72.6015 50.8044 73.4817C50.5814 75.0687 50.5708 75.0778 49.5525 74.5546ZM42.9062 68.9045C42.6523 68.2179 42.3586 66.0141 42.2536 64.007C41.9721 58.6249 42.9862 57.342 45.7379 59.5992C46.3399 60.0929 47.1494 60.595 47.5371 60.7151C48.3887 60.9786 49.7371 63.0872 49.397 63.6236C48.896 64.414 48.0643 63.9618 47.6235 62.6595C47.3727 61.9186 46.8253 61.1339 46.4072 60.9158C45.7685 60.5823 45.5834 60.6823 45.2481 61.5424C45.0286 62.1052 44.7588 63.9703 44.6486 65.687C44.347 70.3819 43.8154 71.3635 42.9062 68.9045ZM63.3103 62.5107C64.9085 58.8621 71.3261 57.1737 78.75 58.449L80.129 58.6858L79.2268 57.9115C78.7306 57.4855 77.0463 56.7635 75.4839 56.3069C69.8777 54.6684 69.2286 54.2274 72.3476 54.1751C73.377 54.1577 74.9619 54.0795 75.8696 54.0011C76.9926 53.9041 77.748 54.0554 78.2335 54.4741C78.6259 54.8128 79.878 55.2109 81.0158 55.3591C82.3086 55.5276 82.9886 55.7802 82.8285 56.0327C82.6595 56.2994 82.9343 56.3481 83.6363 56.1765C84.3904 55.9919 84.6807 56.0595 84.6334 56.4086C84.4299 57.9076 85.3951 58.3269 87.0551 57.4609C87.5397 57.2079 88.0627 57.1918 88.4756 57.4169C89.0314 57.7201 88.938 57.8696 87.8493 58.4185C87.1454 58.7733 85.8297 59.1875 84.9253 59.3389C83.6791 59.5475 83.2672 59.7973 83.2244 60.3701C83.1935 60.7823 83.1606 61.1944 83.1258 61.6063C83.1028 61.8704 82.6511 62.0864 82.1222 62.0864C81.5932 62.0864 81.0508 62.2593 80.9169 62.4706C80.4386 63.2251 78.6381 62.8384 77.3009 61.6939C75.8745 60.473 75.2042 60.4829 75.2042 61.725C75.2042 62.9283 73.7929 64.007 72.2189 64.007C71.1726 64.007 70.4994 63.7047 69.6055 62.8331C68.775 62.0235 68.2038 61.7486 67.7643 61.9469C67.414 62.1052 66.9499 62.2536 66.7333 62.2768C65.6978 62.3877 63.3843 63.3382 63.3843 63.6527C63.3839 63.7468 63.3453 63.8369 63.2769 63.9033C63.2085 63.9697 63.116 64.007 63.0195 64.007C62.8189 64.007 62.9497 63.3337 63.3103 62.5107ZM106.723 47.6502C106.723 47.3157 106.934 47.1104 107.191 47.1941C107.922 47.4315 108.043 48.2584 107.347 48.2584C107.182 48.2579 107.024 48.1937 106.907 48.0798C106.79 47.9658 106.724 47.8114 106.723 47.6502ZM53.3883 23.3714C53.2159 23.0993 53.6447 22.3775 56.2447 18.565C56.9232 17.5701 61.6306 12.3852 62.9902 11.1355C65.8605 8.49681 68.4234 6.83921 73.037 4.63732C75.14 3.63366 75.7923 3.51213 78.9468 3.53548C83.1788 3.56702 86.6775 3.98515 87.2206 4.52411C87.4872 4.78861 87.0411 4.8741 85.8417 4.78834C84.4932 4.6918 84.0965 4.78848 84.1845 5.19212C84.275 5.60697 83.8666 5.68207 82.3131 5.53651C81.22 5.43409 80.3259 5.4756 80.3259 5.62854C80.3259 5.78148 79.2621 6.024 77.9619 6.16737C76.6617 6.31075 75.5979 6.61199 75.5979 6.83675C75.5979 7.22674 76.941 7.14044 80.672 6.51066C82.6952 6.16915 82.0554 7.2221 79.903 7.77609C78.2713 8.19598 78.3766 8.21496 81.5339 8.06913C83.3902 7.98337 85.4498 7.76202 86.1111 7.57713C87.9403 7.06575 90.9175 7.50872 91.3859 8.36203C91.7443 9.01475 91.6111 9.07947 89.894 9.08644C87.9746 9.09436 84.5463 9.5559 81.7048 10.1888C80.8381 10.3819 78.5332 10.8882 76.583 11.314C68.7149 13.0318 63.8369 15.2771 60.2338 18.8398C58.8261 20.2316 57.3784 21.3705 57.0166 21.3705C56.655 21.3705 55.8569 21.889 55.2434 22.5227C54.0866 23.7175 53.7153 23.8874 53.3883 23.3714Z" fill="#242424"/>
</svg>