<svg xmlns="http://www.w3.org/2000/svg" width="25" height="25" viewBox="0 0 25 25" fill="none">
  <path d="M3.125 6.25H5.20833H21.875" stroke="white" stroke-width="1.5" stroke-linecap="round" stroke-linejoin="round"/>
  <path d="M19.7917 6.25004V20.8334C19.7917 21.3859 19.5722 21.9158 19.1815 22.3065C18.7908 22.6972 18.2609 22.9167 17.7083 22.9167H7.29166C6.73913 22.9167 6.20922 22.6972 5.81852 22.3065C5.42782 21.9158 5.20833 21.3859 5.20833 20.8334V6.25004M8.33333 6.25004V4.16671C8.33333 3.61417 8.55282 3.08427 8.94352 2.69357C9.33422 2.30287 9.86413 2.08337 10.4167 2.08337H14.5833C15.1359 2.08337 15.6658 2.30287 16.0565 2.69357C16.4472 3.08427 16.6667 3.61417 16.6667 4.16671V6.25004" stroke="white" stroke-width="1.5" stroke-linecap="round" stroke-linejoin="round"/>
  <path d="M10.4167 11.4584V17.7084" stroke="white" stroke-width="1.5" stroke-linecap="round" stroke-linejoin="round"/>
  <path d="M14.5833 11.4584V17.7084" stroke="white" stroke-width="1.5" stroke-linecap="round" stroke-linejoin="round"/>
</svg>  