<svg xmlns="http://www.w3.org/2000/svg" width="32" height="32" viewBox="0 0 32 32" fill="none">
  <path d="M11.4042 22.7895L11.744 23.2925L12.5934 26.1988L14.632 29.2727L14.8585 30.3347L8.21426 28.5648C8.21426 28.5648 6.45883 27.3539 5.25077 25.5654C4.04274 23.7768 3.96725 23.5719 3.96725 23.5719L4.74114 23.1993L6.13796 22.4727L6.87408 22.3423L9.87532 21.9697L11.1022 22.51L11.4042 22.7895Z" fill="black"/>
  <path d="M21.1649 30.4281C21.1649 30.4281 21.9322 30.1474 22.4561 29.7919C22.9801 29.4363 21.5953 28.1077 21.5953 28.1077L21.0339 28.6503C21.0339 28.6503 20.8842 29.0995 20.9029 29.193C20.9216 29.2866 21.1649 30.4281 21.1649 30.4281Z" fill="black"/>
  <path d="M14.9629 31.2956C12.5841 30.9741 10.5797 30.2127 8.67072 28.9054C8.43248 28.7423 8.19539 28.5501 8.14382 28.4783C8.09228 28.4066 8.02963 28.3515 8.00463 28.3559C7.91223 28.3723 7.08303 27.6175 7.08303 27.517C7.08303 27.4598 7.05184 27.4317 7.01374 27.4547C6.9283 27.5062 6.39868 26.9429 6.41246 26.8152C6.41793 26.7643 6.36198 26.7228 6.28813 26.7228C6.21428 26.7228 6.08084 26.6167 5.99163 26.4871C5.90242 26.3575 5.6582 26.036 5.44895 25.7727C5.23972 25.5094 5.10271 25.2828 5.14453 25.2692C5.23745 25.239 5.24639 25.0467 5.15487 25.0467C5.11873 25.0467 5.07719 25.0818 5.0625 25.1247C5.04783 25.1677 4.94826 25.0738 4.84128 24.9162C4.67855 24.6764 4.65308 24.5781 4.68555 24.3143C4.71168 24.1022 4.69757 23.9991 4.64244 23.9991C4.59617 23.9991 4.57994 23.9496 4.60521 23.8855C4.62978 23.823 4.61644 23.7325 4.57554 23.6845C4.52086 23.6203 4.53953 23.5873 4.64593 23.5602C4.72556 23.5399 4.7907 23.5517 4.7907 23.5866C4.7907 23.6214 4.83909 23.6499 4.89817 23.6499C5.03586 23.6499 5.03342 23.6133 4.88447 23.4437C4.79187 23.3382 4.74051 23.3242 4.66653 23.3841C4.6035 23.4351 4.54531 23.4386 4.49972 23.3941C4.45412 23.3497 4.56082 23.2667 4.80565 23.1561C5.01243 23.0628 5.23694 22.9332 5.30456 22.8681C5.37217 22.803 5.71135 22.6175 6.05828 22.4558C6.97875 22.027 7.59709 21.6109 7.7792 21.2979C7.86461 21.1511 8.24498 20.6852 8.62442 20.2627C9.00387 19.8402 9.41405 19.3452 9.53598 19.1627C9.65791 18.9803 9.78448 18.831 9.81723 18.831C9.85 18.831 9.87682 18.994 9.87682 19.1932C9.87682 20.0574 10.2479 20.9365 11.2644 22.4801C11.5051 22.8456 11.5157 22.8816 11.3833 22.8816C11.3033 22.8816 11.2379 22.9103 11.2379 22.9453C11.2379 22.9804 11.3152 23.0007 11.4098 22.9906C11.5449 22.9762 11.6176 23.0335 11.7496 23.2587C11.842 23.4162 11.9576 23.608 12.0064 23.6848C12.0552 23.7616 12.1156 23.8795 12.1405 23.9467C12.1654 24.0139 12.2148 24.0689 12.2503 24.0689C12.2857 24.0689 12.3706 24.1868 12.4389 24.3308C12.5072 24.4748 12.6034 24.6178 12.6527 24.6485C12.7019 24.6793 12.7422 24.7354 12.7422 24.7733C12.7422 24.8112 12.9356 25.2277 13.172 25.6989C13.4084 26.1702 13.6018 26.575 13.6018 26.5986C13.6018 26.6222 13.8241 27.1077 14.0958 27.6774C14.3674 28.2471 14.6495 28.8535 14.7226 29.0249C14.7957 29.1964 15.073 29.7911 15.339 30.3465C15.6049 30.9018 15.8225 31.3665 15.8225 31.3791C15.8225 31.4094 15.7602 31.4034 14.9629 31.2956ZM14.3898 29.3068C14.3898 29.2684 14.3756 29.237 14.3582 29.237C14.3408 29.237 14.3067 29.2684 14.2824 29.3068C14.258 29.3452 14.2722 29.3767 14.3139 29.3767C14.3557 29.3767 14.3898 29.3452 14.3898 29.3068ZM8.34977 28.316C8.3269 28.2603 8.30991 28.2768 8.30648 28.3582C8.30337 28.4318 8.3203 28.4731 8.34411 28.4498C8.36793 28.4266 8.37045 28.3664 8.34977 28.316ZM7.99553 27.8329C7.94213 27.7052 7.87903 27.6314 7.85532 27.6688C7.83158 27.7062 7.8613 27.8465 7.92135 27.9806C8.05836 28.2864 8.12763 28.1484 7.99556 27.8329H7.99553ZM8.55156 28.1196C8.52719 28.0812 8.44471 28.0497 8.36823 28.0497C8.29176 28.0497 8.22919 28.0812 8.22919 28.1196C8.22919 28.158 8.3117 28.1894 8.41252 28.1894C8.51647 28.1894 8.57667 28.1592 8.55156 28.1196ZM11.5244 27.491C11.5244 27.4526 11.4903 27.4212 11.4485 27.4212C11.4068 27.4212 11.3926 27.4526 11.417 27.491C11.4413 27.5294 11.4755 27.5608 11.4928 27.5608C11.5102 27.5608 11.5244 27.5294 11.5244 27.491ZM6.33833 26.4623C6.26549 26.3913 6.20542 26.4982 6.26516 26.5925C6.31031 26.6637 6.32717 26.6637 6.35144 26.5927C6.36802 26.5442 6.36214 26.4855 6.33833 26.4623ZM6.79649 25.5396C6.79649 25.5124 6.68375 25.4925 6.54598 25.4954C6.28261 25.5009 6.207 25.5767 6.42043 25.6213C6.57603 25.6538 6.79649 25.6059 6.79649 25.5396ZM11.9384 24.3528C11.9417 24.2401 11.8975 24.1099 11.8401 24.0635C11.712 23.9598 11.6976 23.9742 11.6322 24.2714C11.5883 24.4711 11.598 24.5022 11.6932 24.4666C11.7554 24.4433 11.8254 24.4543 11.8487 24.491C11.9158 24.5968 11.932 24.5718 11.9384 24.3528V24.3528ZM5.14888 24.2784C5.14888 24.24 5.10052 24.2086 5.04141 24.2086C4.98233 24.2086 4.93397 24.24 4.93397 24.2784C4.93397 24.3168 4.98233 24.3483 5.04144 24.3483C5.10052 24.3483 5.14891 24.3168 5.14891 24.2784H5.14888ZM5.00561 23.8594C5.00561 23.821 4.95725 23.7896 4.89814 23.7896C4.83906 23.7896 4.7907 23.821 4.7907 23.8594C4.7907 23.8978 4.83909 23.9292 4.89817 23.9292C4.95725 23.9292 5.00561 23.8978 5.00561 23.8594ZM11.7393 23.8203C11.7393 23.7605 11.7066 23.7312 11.6665 23.7554C11.6265 23.7795 11.6123 23.8285 11.6349 23.8642C11.6963 23.9611 11.7393 23.943 11.7393 23.8203H11.7393ZM5.52497 23.4592C5.6961 23.4112 5.68359 23.3007 5.50706 23.3007C5.42827 23.3007 5.36379 23.3321 5.36379 23.3705C5.36379 23.4089 5.31543 23.4404 5.25632 23.4404C5.19724 23.4404 5.14888 23.4751 5.14888 23.5177C5.14888 23.5639 5.19928 23.5748 5.27425 23.5447C5.34319 23.517 5.45603 23.4785 5.52497 23.4592ZM5.18471 23.3007C5.20906 23.2623 5.18064 23.2308 5.12153 23.2308C5.06242 23.2308 4.99415 23.2623 4.9698 23.3007C4.94546 23.3391 4.97388 23.3705 5.03296 23.3705C5.09207 23.3705 5.16034 23.3391 5.18471 23.3007ZM6.39787 22.8189C6.35289 22.7751 6.22503 22.9525 6.22679 23.0563C6.22742 23.0947 6.27497 23.0655 6.33239 22.9915C6.38985 22.9175 6.41931 22.8398 6.39784 22.8189H6.39787ZM6.10228 22.8066C6.12367 22.7269 6.20802 22.6447 6.28971 22.6239C6.49176 22.5724 6.47969 22.4661 6.27713 22.513C6.09859 22.5543 5.93688 22.7193 5.93688 22.8601C5.93688 23.0056 6.05955 22.9659 6.10228 22.8066ZM15.8909 30.9185C15.8081 30.6526 15.7507 30.3462 15.7635 30.2376C15.784 30.0628 15.8299 30.1142 16.1628 30.6856C16.3696 31.0406 16.5389 31.347 16.5389 31.3665C16.5389 31.386 16.427 31.402 16.2902 31.402C16.0449 31.402 16.0395 31.3955 15.8909 30.9185ZM16.7538 31.3326C16.7538 31.2939 16.786 31.2623 16.8254 31.2623C16.8444 31.2623 16.8626 31.2549 16.876 31.2418C16.8894 31.2287 16.897 31.211 16.897 31.1925C16.897 31.1541 16.8447 31.1226 16.7807 31.1226C16.6895 31.1226 16.6736 31.0771 16.7072 30.9131C16.7339 30.783 16.7207 30.7036 16.6722 30.7036C16.6258 30.7036 16.6074 30.6162 16.6268 30.4876C16.6484 30.3442 16.6258 30.2591 16.5595 30.2343C16.4915 30.2089 16.4737 30.1354 16.5036 30.003C16.5276 29.8963 16.5211 29.7932 16.4892 29.774C16.4572 29.7547 16.4216 29.3837 16.41 28.9494C16.3985 28.5151 16.3723 28.1434 16.3517 28.1234C16.3312 28.1034 16.1796 28.0385 16.0148 27.9792C15.6873 27.8614 15.5147 27.6057 15.4337 27.1187C15.3958 26.8912 15.4332 26.7732 15.6832 26.3316C15.845 26.046 16.0532 25.7243 16.146 25.6168C16.343 25.3885 16.4346 25.0931 16.3486 24.9633C16.3154 24.9131 16.2881 24.7935 16.2881 24.6975C16.2881 24.548 16.255 24.5225 16.0585 24.5205C15.9322 24.5191 15.7549 24.4546 15.6645 24.3771C15.5741 24.2995 15.2906 24.114 15.0345 23.9649C14.7784 23.8158 14.3594 23.5143 14.1033 23.2948C13.8472 23.0754 13.5128 22.8455 13.3603 22.784C13.1241 22.6888 13.0963 22.6563 13.1735 22.5657C13.2831 22.4369 13.2124 22.343 13.084 22.4469C13.0186 22.4998 12.9551 22.4943 12.8614 22.4275C12.7357 22.3378 12.7364 22.3309 12.8796 22.2562C12.9616 22.2134 13.0288 22.1462 13.0288 22.1069C13.0288 22.0675 13.0008 22.0522 12.9667 22.0727C12.8922 22.1176 12.6558 21.8783 12.6855 21.7881C12.697 21.7533 12.513 21.5118 12.2766 21.2515C11.7562 20.6785 11.3314 20.065 11.2718 19.8003C11.2476 19.6929 11.1495 19.4467 11.0537 19.2532C10.958 19.0598 10.8797 18.8687 10.8797 18.8285C10.8797 18.7316 10.5821 18.3421 10.508 18.3421C10.4761 18.3421 10.4462 18.4285 10.4416 18.5342C10.4353 18.68 10.4249 18.6926 10.3984 18.5866C10.3792 18.5097 10.3234 18.3998 10.2745 18.3421C10.0665 18.0971 9.94099 17.5981 9.90348 16.8668C9.86961 16.2057 9.87919 16.1073 9.97751 16.1073C10.0396 16.1073 10.1308 16.1701 10.18 16.247C10.2292 16.3238 10.3135 16.3866 10.3674 16.3866C10.4849 16.3866 10.4166 16.7385 10.283 16.8214C10.2279 16.8556 10.2421 16.8738 10.3245 16.8744C10.4127 16.8752 10.4505 16.9325 10.4521 17.0676C10.4534 17.1732 10.5501 17.4474 10.6671 17.6769C10.784 17.9064 10.8802 18.1421 10.8808 18.2007C10.8823 18.355 11.0488 18.7978 11.1499 18.9166C11.1976 18.9726 11.2194 19.0352 11.1984 19.0557C11.1342 19.1183 11.3853 19.6557 11.4987 19.6981C11.5573 19.72 11.5893 19.7628 11.57 19.7933C11.5507 19.8237 11.589 19.8523 11.655 19.8567C12.0157 19.8808 12.5816 19.9668 12.7064 20.0164C12.7852 20.0477 13.0069 20.1279 13.1991 20.1946C13.3913 20.2614 13.5625 20.3679 13.5795 20.4313C13.6536 20.7078 14.9629 20.9708 14.9629 20.7092C14.9629 20.6135 15.2325 20.6351 15.2747 20.7341C15.3009 20.7958 15.35 20.7794 15.4418 20.6783C15.5133 20.5996 15.6321 20.5127 15.7058 20.4852C15.8149 20.4445 15.8328 20.4614 15.802 20.5759C15.7603 20.7317 15.8863 20.7663 16.0201 20.6358C16.0829 20.5746 16.1278 20.575 16.2052 20.6376C16.3328 20.7409 17.0689 20.6746 17.326 20.5367C17.6405 20.3679 17.8016 20.2151 17.7029 20.179C17.5351 20.1177 17.6128 20.0424 17.814 20.0712C17.9758 20.0943 18.0314 20.0642 18.1006 19.9161C18.2051 19.6925 18.2122 19.4134 18.1149 19.3548C18.0754 19.3311 18.0432 19.2506 18.0432 19.1761C18.0432 19.0072 17.8611 18.9986 17.7603 19.1627C17.6896 19.2776 17.6786 19.2767 17.5763 19.1476C17.4727 19.0169 17.4561 19.0158 17.2359 19.1249C17.1087 19.188 16.8433 19.2586 16.6463 19.2817L16.2881 19.3237L16.4572 19.1821C16.6083 19.0557 16.612 19.0405 16.492 19.0405C16.4181 19.0405 16.2344 18.9761 16.0836 18.8973C15.9329 18.8186 15.8305 18.7872 15.8561 18.8275C15.8852 18.8734 15.8088 18.9008 15.6519 18.9008C15.3872 18.9008 15.241 18.7827 15.3927 18.6913C15.4422 18.6615 15.4614 18.6035 15.4354 18.5625C15.3447 18.4195 15.7305 18.266 16.2629 18.2331C16.878 18.1951 17.4831 18.0097 17.3064 17.9133C17.2451 17.8799 16.8343 17.8384 16.3935 17.8212C15.6305 17.7915 15.0493 17.7273 14.0491 17.5625C13.8025 17.5219 13.4882 17.5093 13.3506 17.5345C13.2005 17.5619 13.1004 17.5523 13.1004 17.5105C13.1004 17.4682 12.9644 17.4565 12.755 17.4807C12.4122 17.5203 12.4091 17.5188 12.3404 17.2853C12.3024 17.156 12.2348 17.0501 12.1903 17.0501C12.0473 17.0501 11.9909 16.9398 12.0996 16.8728C12.1601 16.8354 12.1696 16.8074 12.1217 16.8067C12.076 16.8062 12.0463 16.7507 12.0558 16.6834C12.0743 16.552 12.6967 16.1814 12.9034 16.1788C13.0576 16.1768 13.0585 16.1605 12.8855 16.4914C12.8067 16.6421 12.7422 16.8216 12.7422 16.8903C12.7422 17.0387 12.9057 17.055 13.0222 16.9182C13.1304 16.791 13.4586 16.7295 13.4586 16.8363C13.4586 16.8809 13.4204 16.9546 13.3738 17C13.1667 17.202 13.3846 17.2174 14.9826 17.1136C15.5254 17.0784 16.0219 17.0675 16.0859 17.0894C16.2299 17.1386 17.0042 17.0358 17.2798 16.9308C17.4592 16.8624 17.4782 16.8274 17.4393 16.6374C17.4151 16.5187 17.3667 16.4121 17.3319 16.4004C17.297 16.3888 17.1961 16.3181 17.1076 16.2433C17.0191 16.1685 16.9092 16.1073 16.8632 16.1073C16.8172 16.1073 16.714 16.0337 16.6338 15.9438C16.5537 15.8539 16.3464 15.7096 16.1732 15.623C16 15.5365 15.7778 15.4219 15.6792 15.3685C15.5807 15.315 15.3712 15.2706 15.2136 15.2699C14.868 15.2682 14.4827 15.009 14.5546 14.8264C14.619 14.6627 14.8643 14.6834 15.3211 14.8909C15.725 15.0744 15.7481 15.0754 16.63 14.9467C16.8331 14.917 16.9264 14.8577 17.0061 14.7076C17.1311 14.4719 17.1447 14.2216 17.0325 14.2216C16.9836 14.2216 16.9704 14.1546 16.9981 14.047C17.0242 13.9456 17.0122 13.8724 16.9694 13.8724C16.9224 13.8724 16.9258 13.8257 16.9787 13.743C17.0403 13.647 17.0412 13.5564 16.9824 13.3918C16.9388 13.2699 16.9213 13.1238 16.9436 13.0673C16.9658 13.0108 16.9498 12.9646 16.908 12.9646C16.8213 12.9646 16.8549 12.5929 16.9676 12.3037C17.0082 12.1998 17.0222 12.0846 16.9988 12.0477C16.9755 12.0108 16.9869 11.9428 17.0243 11.8964C17.0617 11.8501 17.1115 11.6457 17.1349 11.4422C17.1681 11.1546 17.1544 11.0636 17.0732 11.0332C16.9139 10.9736 16.9472 10.8457 17.1782 10.63C17.2934 10.5223 17.3711 10.3923 17.3509 10.341C17.3228 10.2694 17.3748 10.2572 17.5741 10.2887C17.7819 10.3216 17.8686 10.2981 18.0068 10.1715C18.1199 10.0679 18.2319 10.0266 18.3312 10.0519C18.4146 10.0732 18.5822 10.0568 18.7038 10.0155C18.8914 9.95168 18.9394 9.95995 19.0221 10.0702C19.1149 10.1938 19.1294 10.1943 19.3267 10.0808C19.5588 9.94711 19.7625 9.92479 19.7625 10.033C19.7625 10.0724 19.843 10.1345 19.9415 10.171C20.04 10.2075 20.1206 10.2695 20.1206 10.3089C20.1206 10.3483 20.2093 10.38 20.3176 10.3794C20.4577 10.3787 20.4861 10.3607 20.4159 10.3174C20.2904 10.2399 20.3745 10.1011 20.547 10.1011C20.6651 10.1011 20.7653 9.97408 20.7653 9.82457C20.7653 9.79393 20.6678 9.7295 20.5486 9.68136C20.4294 9.63319 20.2639 9.50079 20.1808 9.38708C20.0759 9.2434 20.0133 9.20633 19.9758 9.26557C19.946 9.31245 19.8778 9.32873 19.8242 9.30177C19.7705 9.27478 19.791 9.30343 19.8695 9.3654C19.9922 9.46213 19.9973 9.48736 19.9054 9.54337C19.8278 9.59062 19.7641 9.56579 19.6745 9.45329C19.5205 9.26009 19.5163 9.19323 19.6579 9.19323C19.7422 9.19323 19.7649 9.12326 19.7538 8.89641C19.7459 8.73317 19.7122 8.54652 19.6791 8.48162C19.6435 8.41203 19.6482 8.34589 19.6906 8.32036C19.8105 8.24812 19.7711 8.14565 19.6234 8.14565C19.4234 8.14565 19.3618 8.00374 19.5418 7.95783C19.6434 7.93194 19.6722 7.89291 19.6286 7.8403C19.5457 7.74024 19.5454 7.387 19.6281 7.33712C19.6626 7.31634 19.6908 7.16238 19.6908 6.99499C19.6908 6.81375 19.727 6.67882 19.7804 6.66136C19.8511 6.63822 19.8517 6.59656 19.7833 6.46349C19.7357 6.37078 19.6874 6.21635 19.6759 6.12032C19.6638 6.01902 19.5874 5.91678 19.4938 5.87679C19.4052 5.83888 19.3326 5.76705 19.3326 5.7172C19.3326 5.64922 19.3673 5.64462 19.4712 5.69882C19.7168 5.82698 19.8508 5.79116 19.7885 5.61399C19.7581 5.52759 19.7388 5.36745 19.7455 5.25821C19.7549 5.10517 19.7323 5.06907 19.6471 5.10098C19.5595 5.13372 19.5397 5.09492 19.5524 4.91551C19.5787 4.54183 19.5518 4.36355 19.4759 4.40928C19.4363 4.43314 19.403 4.38038 19.4014 4.29118C19.3998 4.20249 19.3031 4.0211 19.1864 3.88813C18.9848 3.65815 18.8943 3.40995 19.0453 3.50086C19.0868 3.52589 19.0973 3.49583 19.0706 3.42812C19.0116 3.27796 19.1806 3.17761 19.3467 3.26426C19.4337 3.30964 19.4759 3.30733 19.4759 3.25721C19.4759 3.21624 19.4277 3.1647 19.3689 3.14265C19.31 3.12063 19.2818 3.07113 19.3062 3.03262C19.3344 2.98813 19.2711 2.97966 19.1322 3.00938C18.94 3.05054 18.9183 3.03977 18.9506 2.91923C18.9708 2.84393 18.9335 2.70219 18.8677 2.60427C18.8019 2.50635 18.7587 2.40235 18.7717 2.37317C18.7847 2.344 18.4985 2.22138 18.1356 2.10069C16.7734 1.64764 16.6355 1.57258 17.001 1.48313C17.1014 1.45855 17.2932 1.48939 17.4487 1.55508C17.9184 1.75345 17.9958 1.77662 18.4706 1.86081C18.7614 1.91237 19.01 2.00553 19.1387 2.11107C19.2514 2.20353 19.4106 2.27918 19.4924 2.27918C19.7555 2.27918 20.5081 2.74626 20.9193 3.1647C21.139 3.38827 21.4851 3.70713 21.6884 3.87325C22.1388 4.24132 22.4282 4.71359 22.6685 5.47272C22.9274 6.29044 23.2 8.04448 23.198 8.87896C23.1963 9.57254 23.1148 10.3815 23.0248 10.5985C22.9393 10.8045 23.1708 10.9406 23.5262 10.8931C23.8381 10.8514 23.8471 10.8558 23.9508 11.0976C24.0449 11.3172 24.0439 11.4216 23.9418 12.0325C23.8382 12.652 23.7728 12.8205 23.2811 13.7328C22.9809 14.2897 22.6624 14.9166 22.5733 15.1258C22.48 15.3449 22.3072 15.59 22.1655 15.7038C21.9706 15.8605 21.91 15.9696 21.8729 16.2313C21.7108 17.374 20.7896 19.4526 20.1235 20.1785C19.9566 20.3604 19.9105 20.5033 19.6922 21.5152C19.6513 21.7047 19.5509 21.9206 19.4691 21.9949C19.3773 22.0783 19.3345 22.1827 19.3573 22.2677C19.3981 22.42 18.9619 23.1433 18.7905 23.2074C18.7341 23.2285 18.6879 23.2801 18.6879 23.3221C18.6879 23.4014 18.4382 23.6762 17.9178 24.1699C17.7504 24.3287 17.6134 24.4931 17.6134 24.5351C17.6134 24.5772 17.5328 24.663 17.4343 24.726C17.2471 24.8456 17.1905 24.9962 17.3448 24.9646C17.4491 24.9431 17.7814 25.1441 18.0566 25.395C18.2922 25.6098 18.622 26.2129 18.9355 27.0021C19.0652 27.3286 19.2249 27.7153 19.2904 27.8615C19.4038 28.1147 19.4034 28.124 19.2815 28.0589C19.2111 28.0213 18.931 27.7677 18.6591 27.4954C18.3871 27.223 18.148 27.0164 18.1276 27.0363C18.1072 27.0562 18.0856 27.1902 18.0797 27.3341C18.0717 27.5279 18.1132 27.6367 18.2396 27.7536C18.3517 27.8572 18.4047 27.9772 18.394 28.1028C18.3639 28.4539 18.4842 28.7609 18.6983 28.8797C18.8103 28.9417 18.9021 29.0318 18.9024 29.0798C18.9026 29.1279 18.9427 29.1671 18.9914 29.1671C19.1162 29.1671 20.049 30.1371 20.049 30.2669C20.049 30.3258 20.1026 30.4121 20.1681 30.4588C20.2365 30.5076 20.2685 30.5911 20.2434 30.655C20.185 30.8032 19.8074 30.9879 19.5247 31.0064C19.3994 31.0145 19.2646 31.0397 19.2252 31.0623C19.0374 31.1699 18.7345 31.1961 18.6796 31.1096C18.6348 31.0388 18.6001 31.0477 18.5238 31.1494C18.4499 31.248 18.3609 31.273 18.1639 31.2506C18.02 31.2342 17.8935 31.2461 17.8829 31.2771C17.8537 31.3626 16.7538 31.4166 16.7538 31.3326ZM18.2581 30.9829C18.2581 30.9445 18.224 30.9131 18.1822 30.9131C18.1405 30.9131 18.1263 30.9445 18.1507 30.9829C18.175 31.0214 18.2092 31.0528 18.2265 31.0528C18.2439 31.0528 18.2581 31.0214 18.2581 30.9829ZM17.1836 30.9131C17.1835 30.8946 17.176 30.8769 17.1625 30.8638C17.1491 30.8507 17.1309 30.8433 17.1119 30.8433C17.093 30.8433 17.0748 30.8507 17.0613 30.8638C17.0479 30.8769 17.0404 30.8946 17.0403 30.9131C17.0404 30.9316 17.0479 30.9493 17.0613 30.9624C17.0748 30.9755 17.093 30.9829 17.1119 30.9829C17.1309 30.9829 17.1491 30.9755 17.1625 30.9624C17.176 30.9493 17.1835 30.9316 17.1836 30.9131ZM19.655 30.8433C19.6793 30.8049 19.6651 30.7734 19.6234 30.7734C19.5817 30.7734 19.5475 30.8049 19.5475 30.8433C19.5475 30.8817 19.5618 30.9131 19.5791 30.9131C19.5965 30.9131 19.6306 30.8817 19.655 30.8433H19.655ZM17.4701 30.6338C17.4701 30.6153 17.4625 30.5975 17.4491 30.5844C17.4357 30.5714 17.4175 30.564 17.3985 30.5639C17.3795 30.564 17.3613 30.5714 17.3479 30.5844C17.3345 30.5975 17.3269 30.6153 17.3269 30.6338C17.3269 30.6523 17.3345 30.67 17.3479 30.6831C17.3613 30.6962 17.3795 30.7036 17.3985 30.7036C17.4175 30.7036 17.4357 30.6962 17.4491 30.6831C17.4625 30.67 17.4701 30.6523 17.4701 30.6338ZM19.261 30.6338C19.261 30.5953 19.2269 30.5639 19.1851 30.5639C19.1434 30.5639 19.1292 30.5953 19.1536 30.6338C19.1779 30.6722 19.212 30.7036 19.2294 30.7036C19.2468 30.7036 19.261 30.6722 19.261 30.6338ZM17.1119 30.4517C17.1119 30.378 17.073 30.354 16.9986 30.3818C16.9363 30.4052 16.8699 30.4243 16.8511 30.4243C16.8323 30.4243 16.8369 30.4557 16.8612 30.4941C16.9318 30.6054 17.1119 30.5749 17.1119 30.4517ZM18.9028 30.4243C18.9028 30.4057 18.8952 30.388 18.8818 30.3749C18.8684 30.3618 18.8502 30.3545 18.8312 30.3544C18.8122 30.3545 18.794 30.3618 18.7806 30.3749C18.7672 30.388 18.7596 30.4057 18.7596 30.4243C18.7596 30.4428 18.7672 30.4605 18.7806 30.4736C18.794 30.4867 18.8122 30.494 18.8312 30.4941C18.8502 30.494 18.8684 30.4867 18.8818 30.4736C18.8952 30.4605 18.9028 30.4428 18.9028 30.4243ZM17.7208 30.3544C17.7452 30.316 17.731 30.2846 17.6893 30.2846C17.6475 30.2846 17.6134 30.316 17.6134 30.3544C17.6134 30.3928 17.6276 30.4243 17.645 30.4243C17.6624 30.4243 17.6965 30.3928 17.7209 30.3544H17.7208ZM17.3269 30.2264C17.3269 30.1354 17.2417 30.075 17.1724 30.1167C17.0983 30.1613 17.1622 30.2846 17.2594 30.2846C17.2965 30.2846 17.3269 30.2584 17.3269 30.2264ZM16.9687 30.0407C16.9687 29.9834 17.0332 29.8973 17.1119 29.8493C17.3061 29.7311 17.2922 29.656 17.0761 29.656C16.8597 29.656 16.8332 29.4757 17.0403 29.4116C17.1191 29.3872 17.1836 29.3379 17.1836 29.3021C17.1836 29.2663 17.1191 29.237 17.0403 29.237C16.9615 29.237 16.897 29.2766 16.897 29.3249C16.897 29.3733 16.8313 29.4529 16.751 29.5018C16.5715 29.6111 16.6302 29.7259 16.8655 29.7259C17.0757 29.7259 17.0987 29.8637 16.897 29.9151C16.731 29.9575 16.7018 30.1449 16.8612 30.1449C16.9203 30.1449 16.9687 30.098 16.9687 30.0407ZM18.079 30.0751C18.1034 30.0366 18.0892 30.0052 18.0474 30.0052C18.0057 30.0052 17.9716 30.0366 17.9716 30.0751C17.9716 30.1135 17.9858 30.1449 18.0032 30.1449C18.0205 30.1449 18.0547 30.1135 18.079 30.0751H18.079ZM17.6492 29.8655C17.6249 29.8271 17.5746 29.7957 17.5375 29.7957C17.5005 29.7957 17.4701 29.8271 17.4701 29.8655C17.4701 29.9039 17.5204 29.9354 17.5818 29.9354C17.6432 29.9354 17.6736 29.9039 17.6492 29.8655ZM18.4014 29.7957C18.4014 29.7573 18.3672 29.7259 18.3255 29.7259C18.2838 29.7259 18.2696 29.7573 18.2939 29.7957C18.3183 29.8341 18.3524 29.8655 18.3698 29.8655C18.3872 29.8655 18.4014 29.8341 18.4014 29.7957ZM17.5776 29.4465C17.5532 29.4081 17.4849 29.3767 17.4259 29.3767C17.3668 29.3767 17.3383 29.4081 17.3627 29.4465C17.387 29.4849 17.4553 29.5163 17.5144 29.5163C17.5735 29.5163 17.6019 29.4849 17.5776 29.4465ZM16.7896 29.1671C16.7652 29.1287 16.6989 29.0973 16.6421 29.0973C16.5853 29.0973 16.5389 29.1287 16.5389 29.1671C16.5389 29.2056 16.6052 29.237 16.6864 29.237C16.7675 29.237 16.8139 29.2056 16.7896 29.1671ZM17.8999 29.1671C17.8999 29.1287 17.8696 29.0973 17.8325 29.0973C17.7955 29.0973 17.7452 29.1287 17.7208 29.1671C17.6965 29.2056 17.7268 29.237 17.7882 29.237C17.8497 29.237 17.8999 29.2056 17.8999 29.1671ZM17.4701 29.0275C17.4701 29.009 17.4625 28.9912 17.4491 28.9782C17.4357 28.9651 17.4175 28.9577 17.3985 28.9576C17.3795 28.9577 17.3613 28.9651 17.3479 28.9782C17.3345 28.9912 17.3269 29.009 17.3269 29.0275C17.3269 29.046 17.3345 29.0637 17.3479 29.0768C17.3613 29.0899 17.3795 29.0973 17.3985 29.0973C17.4175 29.0973 17.4357 29.0899 17.4491 29.0768C17.4625 29.0637 17.4701 29.046 17.4701 29.0275ZM17.0403 28.8878C17.0403 28.8494 16.9919 28.818 16.9328 28.818C16.8738 28.818 16.8254 28.8494 16.8254 28.8878C16.8254 28.9262 16.8738 28.9576 16.9329 28.9576C16.9919 28.9576 17.0403 28.9262 17.0403 28.8878ZM16.6821 28.7481C16.6821 28.7097 16.648 28.6783 16.6063 28.6783C16.5646 28.6783 16.5503 28.7097 16.5747 28.7481C16.599 28.7865 16.6332 28.818 16.6505 28.818C16.6679 28.818 16.6821 28.7865 16.6821 28.7481ZM17.7925 28.7481C17.8168 28.7097 17.7846 28.6783 17.7208 28.6783C17.6571 28.6783 17.6249 28.7097 17.6492 28.7481C17.6736 28.7865 17.7058 28.818 17.7208 28.818C17.7359 28.818 17.7681 28.7865 17.7925 28.7481ZM16.9523 28.412C16.9679 28.3664 16.9296 28.3291 16.8672 28.3291C16.8372 28.3292 16.8083 28.3408 16.7871 28.3616C16.7658 28.3823 16.7539 28.4104 16.7538 28.4397C16.7538 28.563 16.908 28.5415 16.9523 28.412ZM17.3269 28.1196C17.3269 28.0812 17.2785 28.0497 17.2194 28.0497C17.1603 28.0497 17.1119 28.0812 17.1119 28.1196C17.1119 28.158 17.1603 28.1894 17.2194 28.1894C17.2785 28.1894 17.3269 28.158 17.3269 28.1196ZM17.6492 27.91C17.6736 27.8716 17.6413 27.8402 17.5776 27.8402C17.5138 27.8402 17.4816 27.8716 17.5059 27.91C17.5303 27.9484 17.5625 27.9799 17.5776 27.9799C17.5926 27.9799 17.6249 27.9484 17.6492 27.91ZM17.1836 27.3494C17.1836 27.3145 17.1385 27.3027 17.0834 27.3234C17.0283 27.344 16.9619 27.3273 16.9359 27.2862C16.8695 27.1816 16.6634 27.1928 16.7015 27.299C16.7187 27.347 16.7835 27.3776 16.8453 27.3669C16.9072 27.3563 16.9787 27.3804 17.004 27.4205C17.055 27.5008 17.1836 27.4499 17.1836 27.3494ZM17.3269 27.072C17.3269 27.0336 17.2785 27.0021 17.2194 27.0021C17.1603 27.0021 17.1119 27.0336 17.1119 27.072C17.1119 27.1104 17.1603 27.1418 17.2194 27.1418C17.2785 27.1418 17.3269 27.1104 17.3269 27.072ZM17.0093 26.7564C17.0801 26.5557 17.0778 26.5133 16.996 26.5133C16.9416 26.5133 16.897 26.5771 16.897 26.6551C16.897 26.7332 16.8479 26.8154 16.7878 26.8379C16.7026 26.8698 16.6969 26.9004 16.7621 26.9771C16.8649 27.0977 16.9 27.0663 17.0093 26.7564ZM16.7538 26.4393C16.7538 26.4032 16.7215 26.3736 16.6821 26.3736C16.6427 26.3736 16.6105 26.4226 16.6105 26.4825C16.6105 26.5424 16.6427 26.5719 16.6821 26.5482C16.7215 26.5244 16.7538 26.4755 16.7538 26.4393ZM16.8254 26.1641C16.8254 26.1257 16.7771 26.0942 16.7179 26.0942C16.6589 26.0942 16.6105 26.1257 16.6105 26.1641C16.6105 26.2025 16.6589 26.2339 16.718 26.2339C16.777 26.2339 16.8254 26.2025 16.8254 26.1641H16.8254ZM16.4672 26.0593C16.4672 26.0017 16.4546 25.9545 16.4391 25.9545C16.4236 25.9545 16.3924 26.0017 16.3697 26.0593C16.347 26.1169 16.3597 26.1641 16.3978 26.1641C16.436 26.1641 16.4672 26.1169 16.4672 26.0593ZM16.5442 25.7957C16.5354 25.7122 16.4371 25.7283 16.4064 25.8184C16.3906 25.8645 16.4164 25.8896 16.4637 25.8742C16.5109 25.8589 16.5472 25.8235 16.5442 25.7957ZM20.18 15.1295C20.2261 15.1295 20.2639 15.085 20.2639 15.0306C20.2639 14.9762 20.2996 14.92 20.3433 14.9058C20.3871 14.8916 20.4274 14.7163 20.4329 14.5162C20.4395 14.2767 20.4736 14.1523 20.5327 14.1521C20.6171 14.1518 21.1314 13.648 21.1832 13.5148C21.1964 13.481 21.0974 13.4534 20.9634 13.4534C20.6924 13.4534 19.9794 13.2665 19.8735 13.1677C19.8319 13.1289 19.8788 13.1042 19.9942 13.1042C20.098 13.1042 20.2691 13.0723 20.3745 13.0332C20.527 12.9767 20.5492 12.9425 20.4836 12.8654C20.4208 12.7916 20.4232 12.7606 20.4937 12.7352C20.5486 12.7154 20.506 12.6707 20.3893 12.6254C20.1624 12.5374 20.1386 12.4432 20.3176 12.3416C20.4296 12.278 20.4257 12.2702 20.2818 12.2683C20.1932 12.2671 20.1206 12.2347 20.1206 12.1963C20.1206 12.1579 20.169 12.1265 20.2281 12.1265C20.2872 12.1265 20.3355 12.0793 20.3355 12.0217C20.3355 11.9395 20.2371 11.9169 19.8796 11.9169C19.404 11.9169 19.0461 11.7498 19.0461 11.5278C19.0461 11.3981 18.9438 11.4005 18.8312 11.5328C18.7821 11.5904 18.7026 11.6376 18.6545 11.6376C18.6063 11.6376 18.5069 11.7022 18.4336 11.7812C18.3234 11.8998 18.3154 11.9483 18.3872 12.0605C18.4566 12.1687 18.4554 12.1963 18.3816 12.1963C18.3307 12.1963 18.2345 12.2862 18.1679 12.3962C18.0571 12.579 18.0558 12.6381 18.1523 13.0893C18.2103 13.3606 18.2397 13.6285 18.2176 13.6846C18.1757 13.7909 19.106 14.7803 19.2478 14.7803C19.2892 14.7803 19.3434 14.8432 19.3684 14.92C19.3935 14.9968 19.444 15.0597 19.4808 15.0597C19.5175 15.0597 19.6146 15.1251 19.6967 15.2051C19.8333 15.3383 19.8561 15.3412 19.9709 15.24C20.0398 15.1792 20.1339 15.1295 20.18 15.1295V15.1295ZM19.2968 12.6478L19.0819 12.5518L19.4163 12.5486C19.7813 12.5452 19.9773 12.5955 19.9773 12.6926C19.9773 12.7859 19.5421 12.7572 19.2968 12.6477L19.2968 12.6478ZM17.7566 14.1809C17.7566 13.9621 17.5884 13.9861 17.5547 14.2096C17.5395 14.3104 17.5696 14.3613 17.6442 14.3613C17.7174 14.3613 17.7567 14.2983 17.7567 14.1809H17.7566ZM17.8999 13.3137C17.8999 13.2952 17.8923 13.2775 17.8789 13.2644C17.8655 13.2513 17.8473 13.2439 17.8283 13.2439C17.8093 13.2439 17.7911 13.2513 17.7777 13.2644C17.7643 13.2775 17.7567 13.2952 17.7567 13.3137C17.7567 13.3322 17.7643 13.35 17.7777 13.3631C17.7911 13.3761 17.8093 13.3835 17.8283 13.3836C17.8473 13.3835 17.8655 13.3761 17.8789 13.3631C17.8923 13.35 17.8999 13.3322 17.8999 13.3137ZM23.2189 12.4474C23.1945 12.4091 23.1817 12.2608 23.1903 12.1181C23.2116 11.7673 23.0925 11.7195 22.9462 12.0201C22.8803 12.1554 22.7979 12.2661 22.763 12.2661C22.7281 12.2661 22.6995 12.2997 22.6995 12.3407C22.6995 12.3834 22.7606 12.3963 22.8428 12.3709C22.9383 12.3413 22.986 12.3583 22.986 12.422C22.986 12.5748 23.1458 12.7023 23.2101 12.6008C23.2393 12.5549 23.2432 12.4859 23.2189 12.4474ZM17.8636 11.7755C17.8287 11.6686 17.7916 11.6455 17.7383 11.6975C17.6849 11.7494 17.6901 11.8038 17.7556 11.8808C17.875 12.0211 17.927 11.9704 17.8636 11.7755V11.7755ZM20.4371 11.0365C20.5595 10.9907 20.5931 10.6938 20.4833 10.6277C20.3539 10.5497 19.2932 10.5683 19.1341 10.6513C18.8385 10.8056 18.9374 10.9389 19.3505 10.9432C19.647 10.9464 20.244 11.0257 20.3118 11.0709C20.3184 11.0753 20.3748 11.0598 20.4371 11.0365ZM21.2247 10.1288C21.3839 10.0692 21.2967 9.96693 21.1243 10.0109C21.0459 10.0309 20.9995 10.0751 21.0211 10.1091C21.0676 10.1825 21.0782 10.1835 21.2247 10.1288ZM19.1894 2.55854C19.1894 2.52013 19.1552 2.4887 19.1135 2.4887C19.0718 2.4887 19.0576 2.52013 19.0819 2.55854C19.1063 2.59694 19.1404 2.62838 19.1578 2.62838C19.1752 2.62838 19.1894 2.59694 19.1894 2.55854ZM20.6172 30.4766C20.5771 30.3902 20.4967 30.2409 20.4385 30.1449C20.355 30.0071 20.3425 29.8267 20.3791 29.2897C20.4127 28.7973 20.3944 28.4497 20.3128 28.0326C20.0687 26.7845 20.0324 25.7122 20.1656 23.6875C20.234 22.6489 20.2956 21.7905 20.3026 21.7799C20.3096 21.7693 20.5213 21.8746 20.7731 22.0139C21.0249 22.1532 21.376 22.324 21.5533 22.3933C21.7306 22.4627 21.9724 22.5694 22.0906 22.6303C22.2088 22.6912 22.3325 22.7413 22.3655 22.7415C22.3985 22.7417 22.6887 22.8557 23.0103 22.9948C23.7395 23.3101 25.2403 23.7915 26.138 23.9981C26.5123 24.0842 27.0735 24.2297 27.3852 24.3213C27.6969 24.4129 27.9951 24.4879 28.0479 24.4879C28.1879 24.4879 28.1745 24.5221 27.8335 25.0344C27.1915 25.999 25.2711 27.9972 24.4904 28.5129C24.3525 28.604 23.9334 28.8854 23.5591 29.1382C23.1848 29.3911 22.7243 29.675 22.5357 29.7691C22.2268 29.9233 22.1819 29.9296 22.0824 29.8326C22.006 29.7582 21.9865 29.6604 22.0191 29.5159C22.0562 29.3512 22.0417 29.3068 21.9508 29.3068C21.7879 29.3068 21.7517 29.4477 21.8287 29.782C21.8977 30.0811 21.8662 30.1467 21.6116 30.2349C21.5073 30.2711 21.4841 30.2013 21.4412 29.722C21.4139 29.4168 21.3593 29.1671 21.3199 29.1671C21.2513 29.1671 21.263 29.3424 21.3781 30.0403C21.4238 30.3175 21.4214 30.3212 21.0929 30.4768C20.688 30.6686 20.7063 30.6686 20.6172 30.4766V30.4766ZM15.28 27.8577C15.1131 27.6819 15.0377 27.5401 15.0508 27.4265C15.086 27.1214 15.2104 27.2064 15.4028 27.6668C15.5068 27.9158 15.5777 28.1196 15.5603 28.1196C15.5429 28.1196 15.4168 28.0017 15.28 27.8577ZM4.11519 23.6578C4.07177 23.5893 4.27147 23.3997 4.32849 23.4553C4.37909 23.5047 4.28612 23.7197 4.2142 23.7197C4.18135 23.7197 4.13678 23.6918 4.11519 23.6578ZM15.8942 19.25C15.8942 19.2116 15.9283 19.1802 15.97 19.1802C16.0117 19.1802 16.026 19.2116 16.0016 19.25C15.9773 19.2884 15.9431 19.3199 15.9257 19.3199C15.9084 19.3199 15.8942 19.2884 15.8942 19.25ZM17.1836 19.2459C17.1836 19.2052 17.2158 19.1914 17.2552 19.2151C17.2946 19.2388 17.3269 19.2721 17.3269 19.2891C17.3269 19.306 17.2946 19.3199 17.2552 19.3199C17.2158 19.3199 17.1836 19.2866 17.1836 19.2459ZM17.3985 19.25C17.3985 19.2315 17.4061 19.2138 17.4195 19.2007C17.433 19.1876 17.4511 19.1802 17.4701 19.1802C17.4891 19.1802 17.5073 19.1876 17.5207 19.2007C17.5341 19.2138 17.5417 19.2315 17.5418 19.25C17.5417 19.2685 17.5341 19.2863 17.5207 19.2993C17.5073 19.3124 17.4891 19.3198 17.4701 19.3199C17.4511 19.3198 17.433 19.3124 17.4195 19.2993C17.4061 19.2863 17.3985 19.2685 17.3985 19.25ZM9.66188 15.5486C9.66188 15.5101 9.69244 15.4787 9.7298 15.4787C9.77052 15.4787 9.76663 15.3918 9.72013 15.2617C9.66104 15.0965 9.66385 15.0318 9.73181 14.9909C9.78853 14.9567 9.8211 14.7687 9.8211 14.4753C9.8211 14.2213 9.84924 14.0304 9.88364 14.0512C9.96824 14.1021 9.94463 15.4213 9.85716 15.5311C9.77373 15.6358 9.66191 15.6458 9.66191 15.5486H9.66188ZM13.1115 15.3472C12.9869 15.2702 13.1483 14.9459 13.4381 14.6914C14.1946 14.0269 14.5331 13.7954 14.5331 13.9426C14.5331 14.1996 14.0833 14.7576 13.4655 15.267C13.2728 15.4259 13.2479 15.4315 13.1115 15.3472ZM10.2529 14.1419C10.2036 14.0936 10.1633 13.9974 10.1633 13.9283C10.1633 13.8592 10.129 13.8026 10.0869 13.8026C10.0419 13.8026 10.03 13.7425 10.0579 13.6567C10.0911 13.5547 10.0632 13.482 9.96491 13.4149C9.82018 13.3161 9.78173 13.1468 9.67085 12.1208C9.63937 11.8295 9.59185 11.5569 9.56521 11.5149C9.51421 11.4345 9.65081 11.0789 9.73273 11.0789C9.80607 11.0789 9.95077 11.7599 9.9031 11.881C9.87998 11.9398 9.92001 12.074 9.99208 12.1794C10.0641 12.2847 10.1146 12.4102 10.1043 12.4582C10.0939 12.5062 10.121 12.5455 10.1644 12.5455C10.2079 12.5455 10.2225 12.5785 10.1969 12.6189C10.1714 12.6592 10.2041 12.8024 10.2697 12.9371C10.3637 13.1303 10.3707 13.2035 10.3028 13.2833C10.2356 13.3622 10.236 13.4519 10.3043 13.6899C10.4111 14.0616 10.387 14.2735 10.2529 14.1419H10.2529ZM9.00954 13.5554C8.73194 13.4127 8.59187 13.1557 8.57759 12.7626C8.56236 12.3431 8.64864 12.2232 9.03959 12.1206C9.29349 12.0539 9.34414 12.0602 9.42525 12.1683C9.54902 12.3333 9.54301 12.4736 9.39836 12.7989C9.3322 12.9476 9.25967 13.2002 9.23716 13.3603C9.19662 13.6488 9.19468 13.6505 9.00954 13.5554ZM7.80113 12.5281C7.75496 12.4032 7.70155 12.0025 7.68248 11.6376C7.63129 10.659 7.81567 10.4258 8.31597 10.8362C8.42543 10.926 8.57262 11.0173 8.64311 11.0391C8.79795 11.087 9.04311 11.4704 8.98128 11.5679C8.89018 11.7116 8.73897 11.6294 8.65882 11.3926C8.61321 11.2579 8.51369 11.1152 8.43768 11.0756C8.32155 11.0149 8.28789 11.0331 8.22692 11.1895C8.18701 11.2918 8.13797 11.6309 8.11792 11.9431C8.0631 12.7967 7.96643 12.9752 7.80113 12.5281ZM11.511 11.3656C11.8015 10.7022 12.9684 10.3952 14.3182 10.6271L14.5689 10.6701L14.4049 10.5293C14.3146 10.4519 14.0084 10.3206 13.7243 10.2376C12.705 9.93969 12.587 9.8595 13.1541 9.84999C13.3413 9.84684 13.6294 9.83261 13.7945 9.81836C13.9987 9.80073 14.136 9.82824 14.2243 9.90436C14.2956 9.96593 14.5233 10.0383 14.7301 10.0653C14.9652 10.0959 15.0888 10.1418 15.0597 10.1877C15.029 10.2362 15.079 10.2451 15.2066 10.2139C15.3437 10.1803 15.3965 10.1926 15.3879 10.2561C15.3509 10.5286 15.5264 10.6049 15.8282 10.4474C15.9163 10.4014 16.0114 10.3985 16.0865 10.4394C16.1875 10.4945 16.1705 10.5217 15.9726 10.6215C15.8446 10.686 15.6054 10.7613 15.441 10.7889C15.2144 10.8268 15.1395 10.8722 15.1317 10.9764C15.1261 11.0513 15.1201 11.1262 15.1138 11.2011C15.1096 11.2491 15.0275 11.2884 14.9313 11.2884C14.8351 11.2884 14.7365 11.3199 14.7122 11.3583C14.6252 11.4955 14.2978 11.4251 14.0547 11.217C13.7954 10.9951 13.6735 10.9969 13.6735 11.2227C13.6735 11.4415 13.4169 11.6376 13.1307 11.6376C12.9405 11.6376 12.8181 11.5827 12.6556 11.4242C12.5045 11.277 12.4007 11.227 12.3208 11.263C12.2571 11.2918 12.1727 11.3188 12.1333 11.323C11.945 11.3432 11.5244 11.516 11.5244 11.5732C11.5243 11.5903 11.5173 11.6067 11.5049 11.6188C11.4925 11.6308 11.4756 11.6376 11.4581 11.6376C11.4216 11.6376 11.4454 11.5152 11.511 11.3656ZM19.4043 8.66365C19.4043 8.60283 19.4425 8.56551 19.4893 8.58073C19.6221 8.62388 19.6442 8.77424 19.5177 8.77424C19.4876 8.77415 19.4588 8.76247 19.4376 8.74175C19.4163 8.72103 19.4043 8.69296 19.4043 8.66365ZM9.70696 4.24932C9.67561 4.19986 9.75359 4.06862 10.2263 3.37544C10.3497 3.19454 11.2056 2.25184 11.4528 2.02462C11.9746 1.54485 12.4406 1.24347 13.2794 0.843126C13.6618 0.660644 13.7804 0.638547 14.354 0.642793C15.1234 0.648528 15.7595 0.72455 15.8583 0.822544C15.9068 0.870635 15.8257 0.886177 15.6076 0.870585C15.3624 0.853032 15.2903 0.87061 15.3063 0.944C15.3227 1.01943 15.2485 1.03308 14.966 1.00662C14.7673 0.987995 14.6047 0.995542 14.6047 1.02335C14.6047 1.05116 14.4113 1.09525 14.1749 1.12132C13.9385 1.14739 13.7451 1.20216 13.7451 1.24302C13.7451 1.31393 13.9893 1.29824 14.6676 1.18374C15.0355 1.12164 14.9192 1.31309 14.5278 1.41381C14.2311 1.49016 14.2503 1.49361 14.8243 1.46709C15.1619 1.4515 15.5363 1.41125 15.6566 1.37764C15.9891 1.28466 16.5305 1.3652 16.6156 1.52035C16.6808 1.63902 16.6566 1.65079 16.3444 1.65206C15.9954 1.6535 15.372 1.73741 14.8554 1.85249C14.6978 1.8876 14.2788 1.97966 13.9242 2.05707C12.4936 2.3694 11.6067 2.77764 10.9516 3.42539C10.6957 3.67846 10.4324 3.88552 10.3667 3.88552C10.3009 3.88552 10.1558 3.97979 10.0443 4.09501C9.83393 4.31225 9.76642 4.34314 9.70696 4.24932Z" fill="black"/>
</svg>